<svg width="134" height="94" viewBox="0 0 134 94" fill="none" xmlns="http://www.w3.org/2000/svg">
<g id="browser access forbidden lg">
<g id="Group">
<path id="Vector" d="M129.87 2H4.18301C3.00649 2 2.05273 2.95554 2.05273 4.13425V89.5043C2.05273 90.683 3.00649 91.6386 4.18301 91.6386H129.87C131.046 91.6386 132 90.683 132 89.5043V4.13425C132 2.95554 131.046 2 129.87 2Z" stroke="#909090" stroke-width="3" stroke-linecap="round" stroke-linejoin="round"/>
<path id="Vector_2" d="M131.947 15.3398H2" stroke="#909090" stroke-width="2" stroke-linecap="round" stroke-linejoin="round"/>
<path id="Vector_3" d="M21.1729 8.9375H10.5215" stroke="#909090" stroke-width="2" stroke-linecap="round" stroke-linejoin="round"/>
<path id="Vector_4" d="M81.939 46.8203H49.9848C48.8083 46.8203 47.8545 47.7758 47.8545 48.9546V72.4313C47.8545 73.61 48.8083 74.5656 49.9848 74.5656H81.939C83.1155 74.5656 84.0693 73.61 84.0693 72.4313V48.9546C84.0693 47.7758 83.1155 46.8203 81.939 46.8203Z" stroke="#909090" stroke-width="3" stroke-linecap="round" stroke-linejoin="round"/>
<path id="Vector_5" d="M76.6124 46.8221V39.1314C76.6124 33.7744 72.8209 28.981 67.5273 28.2253C60.9488 27.2862 55.3096 32.3756 55.3096 38.7845V45.755" stroke="#909090" stroke-width="3" stroke-linecap="round" stroke-linejoin="round"/>
</g>
</g>
</svg>
