<svg width="14" height="14" viewBox="0 0 14 14" fill="none" xmlns="http://www.w3.org/2000/svg">
<g id="Frame" clip-path="url(#clip0_1601_63029)">
<path id="iconFill" fill-rule="evenodd" clip-rule="evenodd" d="M14 7V10.1111C14 12.2553 12.2553 14 10.1111 14H7.17887L8.65885 12.5037C9.09179 12.0654 9.33789 11.4616 9.33333 10.8464C9.32878 10.2243 9.08268 9.64095 8.64063 9.20345L6.30653 6.89594C5.86676 6.46072 5.28342 6.22146 4.6659 6.22146C4.08941 6.22146 3.55259 6.43717 3.1301 6.81277C3.23017 4.75704 4.91997 3.1111 7 3.1111H9.33333C9.33333 2.25357 8.63569 1.55555 7.77778 1.55555H3.88889C2.60221 1.55555 1.55556 2.6022 1.55556 3.88888V5.58192C1.31174 5.49533 1.05103 5.44444 0.777778 5.44444C0.503774 5.44444 0.244572 5.50065 0 5.5878V3.88888C0 1.74468 1.74468 0 3.88889 0H7.77778C9.49322 0 10.8889 1.39529 10.8889 3.11111C10.8889 3.13846 10.876 3.16162 10.8733 3.1882C12.6535 3.54367 14 5.1167 14 7ZM7.54687 10.3094L5.21354 8.0026C4.90668 7.69954 4.4145 7.70258 4.11371 8.00868C3.81141 8.31402 3.81445 8.80696 4.11979 9.1085L5.13378 10.1107L3.76432 10.1096C2.5255 10.061 1.55556 9.03635 1.55556 7.77777C1.55556 7.34787 1.20768 6.99999 0.777778 6.99999C0.347877 6.99999 0 7.34787 0 7.77777C0 9.87565 1.62696 11.5823 3.70432 11.6636L5.11158 11.6661L4.11372 12.6753C3.81142 12.9807 3.81446 13.4736 4.1198 13.7752C4.2717 13.9256 4.46919 14 4.66667 14C4.86719 14 5.0677 13.9233 5.21962 13.7691L7.55295 11.4092C7.69802 11.2626 7.7793 11.0643 7.77778 10.8577C7.77626 10.6519 7.69347 10.4544 7.54687 10.3094Z" fill="#292929"/>
</g>
<defs>
<clipPath id="clip0_1601_63029">
<rect width="14" height="14" fill="white"/>
</clipPath>
</defs>
</svg>
