<svg width="17" height="16" viewBox="0 0 17 16" fill="none" xmlns="http://www.w3.org/2000/svg">
<g id="Frame" clip-path="url(#clip0_1810_65811)">
<path id="iconFill" fill-rule="evenodd" clip-rule="evenodd" d="M10.3643 8.00196L16.0388 2.32764C16.5418 1.82471 16.5418 1.0083 16.0388 0.505367C15.5349 0.00341746 14.7205 0.00341752 14.2166 0.505378L8.54217 6.17994L2.86743 0.505378C2.3645 0.00341752 1.54907 0.00341752 1.04614 0.505378C0.543213 1.00831 0.543213 1.82471 1.04614 2.32764L6.72027 8.00196L1.04614 13.6763C0.543213 14.1792 0.543213 14.9956 1.04614 15.4985C1.2976 15.7495 1.62719 15.8755 1.95678 15.8755C2.28637 15.8755 2.61596 15.7495 2.86742 15.4985L8.54216 9.82398L14.2165 15.4985C14.4685 15.7495 14.7976 15.8755 15.1277 15.8755C15.4578 15.8755 15.7869 15.7495 16.0388 15.4985C16.5417 14.9956 16.5417 14.1792 16.0388 13.6763L10.3643 8.00196Z" fill="#222222"/>
</g>
<defs>
<clipPath id="clip0_1810_65811">
<rect width="16" height="16" fill="white" transform="translate(0.541992)"/>
</clipPath>
</defs>
</svg>
