<svg width="51" height="52" viewBox="0 0 51 52" fill="none" xmlns="http://www.w3.org/2000/svg">
<g id="Frame">
<path id="iconPrimary" d="M35.1049 31.8136L26.3495 22.198C26.241 22.0789 26.1095 21.9838 25.9634 21.9189C25.8172 21.8539 25.6595 21.8203 25.5 21.8203C25.3406 21.8203 25.1828 21.8539 25.0367 21.9189C24.8905 21.9838 24.7591 22.0789 24.6506 22.198L15.8951 31.8136C15.686 32.0432 15.5749 32.3482 15.5862 32.6613C15.5976 32.9745 15.7305 33.2702 15.9557 33.4835L16.8062 34.2892C16.9178 34.3948 17.0487 34.477 17.1914 34.5311C17.3341 34.5851 17.4859 34.61 17.638 34.6042C17.7902 34.5985 17.9397 34.5622 18.0781 34.4975C18.2165 34.4328 18.3411 34.341 18.4446 34.2272L23.7614 28.3869V49.9149C23.7614 50.2284 23.8835 50.529 24.1009 50.7506C24.3182 50.9722 24.6131 51.0968 24.9205 51.0968H26.0796C26.387 51.0968 26.6818 50.9722 26.8992 50.7506C27.1165 50.529 27.2387 50.2284 27.2387 49.9149V28.3869L32.5554 34.2272C32.659 34.341 32.7835 34.4328 32.9219 34.4975C33.0603 34.5622 33.2099 34.5984 33.362 34.6042C33.5142 34.6099 33.666 34.5851 33.8087 34.531C33.9514 34.4769 34.0823 34.3947 34.1938 34.2891L35.0444 33.4834C35.2695 33.2701 35.4024 32.9744 35.4138 32.6613C35.4251 32.3481 35.314 32.0432 35.1049 31.8136Z" fill="#B6B6B6"/>
<path id="iconPrimary_2" d="M41.6075 16.7963C41.6211 16.6001 41.6279 16.4293 41.6256 16.2815C41.6474 14.6763 41.3352 13.0845 40.7097 11.6112C40.0842 10.1379 39.1595 8.8165 37.9966 7.7341C36.7464 6.56691 35.2802 5.66581 33.6841 5.08357C32.088 4.50133 30.394 4.24966 28.7013 4.3433C26.2577 4.33443 23.8665 5.06456 21.8299 6.44137C19.7934 7.81817 18.2029 9.77981 17.2598 12.0782C16.729 11.9927 16.192 11.9541 15.6547 11.9628C14.2518 11.9438 12.8613 12.2333 11.5779 12.8115C10.2945 13.3897 9.14841 14.2431 8.21757 15.3135C7.28673 16.3839 6.59303 17.6463 6.18369 19.0147C5.77436 20.383 5.65899 21.8252 5.84546 23.2432C4.30773 23.763 2.97833 24.7802 2.05905 26.1404C1.13976 27.5005 0.680796 29.1293 0.751808 30.7796C0.690959 31.8249 0.835826 32.8722 1.17788 33.8596C1.51994 34.847 2.05227 35.7547 2.74354 36.5292C3.43481 37.3037 4.27106 37.9294 5.20306 38.3695C6.13506 38.8095 7.14398 39.055 8.17043 39.0915H10.3998C10.7072 39.0915 11.002 38.967 11.2194 38.7454C11.4367 38.5238 11.5588 38.2232 11.5588 37.9097V36.7299C11.5588 36.4165 11.4367 36.1159 11.2194 35.8942C11.002 35.6726 10.7072 35.5481 10.3998 35.5481L8.25873 35.5484C7.67898 35.5286 7.10954 35.3865 6.58634 35.1311C6.06314 34.8757 5.59753 34.5125 5.2189 34.0644C4.84028 33.6163 4.55684 33.0931 4.38647 32.5277C4.21611 31.9623 4.16252 31.3671 4.22908 30.7796C4.17701 30.2467 4.23278 29.7087 4.39292 29.1987C4.55307 28.6887 4.81418 28.2177 5.1601 27.8148C5.50602 27.4119 5.92938 27.0857 6.40396 26.8564C6.87854 26.627 7.39423 26.4995 7.91912 26.4816H10.2509L9.58535 24.2034C9.23841 23.2306 9.12497 22.1873 9.25453 21.1607C9.38409 20.134 9.75288 19.154 10.33 18.3024C10.9072 17.4509 11.676 16.7527 12.572 16.2662C13.4681 15.7796 14.4654 15.519 15.4805 15.506C15.5326 15.506 15.6118 15.5083 15.6344 15.5083C16.4179 15.5101 17.1973 15.6227 17.9503 15.843L19.6731 16.3416L20.1123 14.5712C20.6134 12.6126 21.751 10.8852 23.3395 9.67102C24.9279 8.45687 26.8732 7.8278 28.8575 7.88658C31.3012 7.74699 33.7006 8.59262 35.5382 10.241C36.3674 10.9866 37.0299 11.9053 37.4806 12.9347C37.9313 13.9642 38.1598 15.0803 38.1505 16.2077C38.1267 16.8961 38.0594 17.5823 37.9491 18.262L37.6389 20.4756L39.8235 20.277C40.0273 20.2609 40.3397 20.2678 40.7698 20.2818C44.1724 20.4203 46.5471 23.6841 46.5471 28.2152C46.632 29.1724 46.5148 30.137 46.2035 31.0441C45.8922 31.9513 45.3941 32.78 44.7425 33.4745C44.091 34.169 43.3011 34.7132 42.4261 35.0705C41.5511 35.4279 40.6112 35.5901 39.6696 35.5462L39.0585 35.5457C38.7948 35.5457 38.5419 35.6524 38.3554 35.8425C38.1689 36.0325 38.0641 36.2903 38.064 36.5592V38.0761C38.0641 38.345 38.1689 38.6028 38.3554 38.7928C38.5419 38.9829 38.7948 39.0896 39.0585 39.0896L39.6945 39.0916C41.0916 39.1354 42.4822 38.8813 43.7775 38.3456C45.0727 37.8098 46.244 37.0043 47.2163 35.9805C48.1887 34.9567 48.9407 33.7372 49.4242 32.4C49.9078 31.0629 50.1122 29.6375 50.0244 28.2152C50.0245 22.0661 46.5246 17.3872 41.6075 16.7963Z" fill="#B6B6B6"/>
</g>
</svg>
