<svg width="18" height="18" viewBox="0 0 18 18" fill="none" xmlns="http://www.w3.org/2000/svg">
<g id="Frame">
<path id="iconFill" fill-rule="evenodd" clip-rule="evenodd" d="M7.35 13.5C7.35 10.6755 8.8295 9.68051 9.673 8.68051C10.4687 7.71204 10.9097 6.50085 10.923 5.24751C10.923 2.64751 9.545 1.19751 7.4635 1.19751C5.382 1.19751 3.9635 2.70651 3.9635 5.24751C3.99892 6.50718 4.46117 7.71746 5.2745 8.68001C5.38928 8.80809 5.45438 8.97306 5.458 9.14501V10.182C5.46104 10.358 5.39907 10.529 5.28395 10.6622C5.16882 10.7954 5.00862 10.8815 4.834 10.904C0.6535 11.2685 0 14.1295 0 15.258C0 15.383 0.0145 16.8765 0.024 17H8.4465C7.73166 15.9729 7.34896 14.7514 7.35 13.5Z" fill="#222222"/>
<path id="iconFill_2" fill-rule="evenodd" clip-rule="evenodd" d="M11.6435 7.6365C12.244 7.44636 12.8701 7.34973 13.5 7.35C13.5645 7.35 13.6275 7.3575 13.6915 7.3595C14.0122 6.60436 14.1839 5.79432 14.197 4.974C14.197 2.797 12.9125 1.198 10.9715 1.198C10.8555 1.198 10.7495 1.219 10.6375 1.229C11.1436 1.7644 11.5362 2.3966 11.7918 3.0876C12.0473 3.7786 12.1605 4.51414 12.1245 5.25C12.1135 6.06844 11.9504 6.87771 11.6435 7.6365Z" fill="#222222"/>
<path id="iconFill_3" fill-rule="evenodd" clip-rule="evenodd" d="M13.5 9.05005C12.6199 9.05005 11.7595 9.31104 11.0277 9.80001C10.2959 10.289 9.72555 10.984 9.38874 11.7971C9.05193 12.6102 8.96381 13.505 9.13551 14.3682C9.30721 15.2314 9.73104 16.0243 10.3534 16.6467C10.9757 17.269 11.7686 17.6928 12.6319 17.8645C13.4951 18.0362 14.3898 17.9481 15.2029 17.6113C16.0161 17.2745 16.7111 16.7041 17.2 15.9723C17.689 15.2405 17.95 14.3802 17.95 13.5C17.95 12.3198 17.4812 11.188 16.6466 10.3534C15.8121 9.51889 14.6802 9.05005 13.5 9.05005ZM16 13.75C16 13.8164 15.9737 13.8799 15.9268 13.9268C15.8799 13.9737 15.8163 14 15.75 14H14V15.75C14 15.8164 13.9737 15.8799 13.9268 15.9268C13.8799 15.9737 13.8163 16 13.75 16H13.25C13.1837 16 13.1201 15.9737 13.0732 15.9268C13.0263 15.8799 13 15.8164 13 15.75V14H11.25C11.1837 14 11.1201 13.9737 11.0732 13.9268C11.0263 13.8799 11 13.8164 11 13.75V13.25C11 13.1837 11.0263 13.1202 11.0732 13.0733C11.1201 13.0264 11.1837 13 11.25 13H13V11.25C13 11.1837 13.0263 11.1202 13.0732 11.0733C13.1201 11.0264 13.1837 11 13.25 11H13.75C13.8163 11 13.8799 11.0264 13.9268 11.0733C13.9737 11.1202 14 11.1837 14 11.25V13H15.75C15.8163 13 15.8799 13.0264 15.9268 13.0733C15.9737 13.1202 16 13.1837 16 13.25V13.75Z" fill="#222222"/>
</g>
</svg>
