<svg width="18" height="18" viewBox="0 0 18 18" fill="none" xmlns="http://www.w3.org/2000/svg">
<g id="Frame" clip-path="url(#clip0_202_4392)">
<path id="iconFill" fill-rule="evenodd" clip-rule="evenodd" d="M17.8155 10.94L16.0625 9.18698C16.0279 9.15253 15.9868 9.12529 15.9415 9.10684C15.8963 9.08839 15.8479 9.07909 15.799 9.07948H15.7875C15.6812 9.08317 15.5803 9.12735 15.5055 9.20298L10.0945 14.6145C10.0588 14.6501 10.0325 14.6941 10.018 14.7425L9.00452 17.7425C8.97002 17.857 9.14402 18.001 9.24252 18.001C9.24868 18.0013 9.25486 18.0013 9.26102 18.001C9.34502 17.9815 11.8225 17.119 12.261 16.987C12.3086 16.9726 12.3519 16.9467 12.387 16.9115L17.8 11.497C17.8723 11.4254 17.916 11.33 17.923 11.2285C17.9268 11.1755 17.9191 11.1223 17.9006 11.0726C17.882 11.0228 17.853 10.9776 17.8155 10.94ZM12.0155 16.4215C11.3585 16.619 10.3655 17.036 9.80002 17.2055L10.58 14.99L12.0155 16.4215Z" fill="#222222"/>
<path id="iconFill_2" fill-rule="evenodd" clip-rule="evenodd" d="M8.88749 13.811C8.98312 13.548 9.13518 13.309 9.33299 13.111L12.2155 10.229C11.537 9.95147 10.819 9.78273 10.088 9.72902C9.91337 9.70653 9.75317 9.62045 9.63804 9.48724C9.52291 9.35403 9.46094 9.18305 9.46399 9.00702C9.46399 8.64652 9.48549 8.49902 9.50599 7.94902C9.50956 7.77715 9.57447 7.61222 9.68899 7.48402C10.1326 6.94072 10.4658 6.31603 10.67 5.64502C10.8507 5.13977 10.9481 4.60851 10.9585 4.07202C10.9654 3.49015 10.8781 2.91101 10.7 2.35702C10.5131 1.65562 10.0918 1.0393 9.50607 0.610516C8.92038 0.181729 8.20558 -0.0337072 7.48049 1.66027e-05C6.75731 -0.0157759 6.04794 0.199488 5.45549 0.614517C5.20574 0.801243 4.98647 1.02558 4.80549 1.27952C4.23438 2.08764 3.94484 3.06114 3.98149 4.05002C3.98674 4.40961 4.03304 4.76743 4.11949 5.11652C4.29629 5.99238 4.68437 6.8118 5.24999 7.50352C5.36458 7.63172 5.42965 7.79661 5.43349 7.96852C5.44899 8.38702 5.47499 8.70152 5.47499 8.98452C5.478 9.1607 5.41589 9.33181 5.30056 9.46504C5.18523 9.59827 5.02479 9.68425 4.84999 9.70652C0.666988 10.0705 0.0134888 12.9315 0.0134888 14.06C0.0134888 14.1855 0.0374888 14.823 0.0374888 14.823H8.48199L8.88749 13.811Z" fill="#222222"/>
</g>
<defs>
<clipPath id="clip0_202_4392">
<rect width="18" height="18" fill="white"/>
</clipPath>
</defs>
</svg>