<svg width="16" height="16" viewBox="0 0 16 16" fill="none" xmlns="http://www.w3.org/2000/svg">
<g id="Frame">
<path id="iconPrimary" d="M13.4008 2.39844H2.60078C1.60821 2.39844 0.800781 3.20625 0.800781 4.19844V4.99844C0.800781 5.6209 1.11889 6.17031 1.60078 6.49375V11.7984C1.60078 12.7906 2.40821 13.5984 3.40078 13.5984H12.6008C13.5934 13.5984 14.4008 12.7906 14.4008 11.7984V6.49375C14.8827 6.17031 15.2008 5.6209 15.2008 4.99844V4.19844C15.2008 3.20625 14.3934 2.39844 13.4008 2.39844ZM2.00078 4.19844C2.00078 3.86797 2.26993 3.59844 2.60078 3.59844H13.4008C13.7316 3.59844 14.0008 3.86797 14.0008 4.19844V4.99844C14.0008 5.32891 13.7316 5.59844 13.4008 5.59844H2.60078C2.26993 5.59844 2.00078 5.32891 2.00078 4.99844V4.19844ZM12.6008 12.3984H3.40078C3.06993 12.3984 2.80078 12.1289 2.80078 11.7984V6.79844H13.2008V11.7984C13.2008 12.1289 12.9316 12.3984 12.6008 12.3984Z" fill="#292929"/>
<path id="iconPrimary_2" d="M9.79961 9.59844H6.19961C5.86836 9.59844 5.59961 9.32969 5.59961 8.99844C5.59961 8.66719 5.86836 8.39844 6.19961 8.39844H9.79961C10.1309 8.39844 10.3996 8.66719 10.3996 8.99844C10.3996 9.32969 10.1309 9.59844 9.79961 9.59844Z" fill="#292929"/>
</g>
</svg>
