<svg width="14" height="14" viewBox="0 0 14 14" fill="none" xmlns="http://www.w3.org/2000/svg">
<g id="Frame" clip-path="url(#clip0_1601_63034)">
<path id="iconFill" fill-rule="evenodd" clip-rule="evenodd" d="M5.44477 6.22266C5.01487 6.22266 4.66699 6.57053 4.66699 7.00043V10.1115C4.66699 10.5414 5.01487 10.8893 5.44477 10.8893C5.87467 10.8893 6.22255 10.5414 6.22255 10.1115V7.00043C6.22255 6.57053 5.87467 6.22266 5.44477 6.22266Z" fill="#292929"/>
<path id="iconFill_2" fill-rule="evenodd" clip-rule="evenodd" d="M8.55512 6.22266C8.12522 6.22266 7.77734 6.57053 7.77734 7.00043V10.1115C7.77734 10.5414 8.12522 10.8893 8.55512 10.8893C8.98502 10.8893 9.3329 10.5414 9.3329 10.1115V7.00043C9.3329 6.57053 8.98502 6.22266 8.55512 6.22266Z" fill="#292929"/>
<path id="iconFill_3" fill-rule="evenodd" clip-rule="evenodd" d="M13.2222 3.11111H10.1111C10.1111 1.39529 8.71582 0 7 0C5.28418 0 3.88889 1.39529 3.88889 3.11111H0.777778C0.347877 3.11111 0 3.45899 0 3.88889C0 4.31879 0.347877 4.66667 0.777778 4.66667H1.55556V11.6667C1.55556 12.9533 2.60221 14 3.88889 14H10.1111C11.3978 14 12.4444 12.9533 12.4444 11.6667V4.66667H13.2222C13.6521 4.66667 14 4.31879 14 3.88889C14 3.45899 13.6521 3.11111 13.2222 3.11111ZM7 1.55556C7.85753 1.55556 8.55556 2.25358 8.55556 3.11111H5.44444C5.44444 2.25358 6.14247 1.55556 7 1.55556ZM10.8889 11.6667C10.8889 12.0958 10.5403 12.4444 10.1111 12.4444H3.88889C3.45974 12.4444 3.11111 12.0958 3.11111 11.6667V4.66667H10.8889V11.6667Z" fill="#292929"/>
</g>
<defs>
<clipPath id="clip0_1601_63034">
<rect width="14" height="14" fill="white"/>
</clipPath>
</defs>
</svg>
