<svg width="16" height="16" viewBox="0 0 16 16" fill="none" xmlns="http://www.w3.org/2000/svg">
<path d="M5.11969 15.1999C5.91498 15.1999 6.55969 14.5552 6.55969 13.7599C6.55969 12.9647 5.91498 12.3199 5.11969 12.3199C4.3244 12.3199 3.67969 12.9647 3.67969 13.7599C3.67969 14.5552 4.3244 15.1999 5.11969 15.1999Z" fill="#292929"/>
<path d="M5.11969 9.44006C5.91498 9.44006 6.55969 8.79535 6.55969 8.00006C6.55969 7.20477 5.91498 6.56006 5.11969 6.56006C4.3244 6.56006 3.67969 7.20477 3.67969 8.00006C3.67969 8.79535 4.3244 9.44006 5.11969 9.44006Z" fill="#292929"/>
<path d="M5.11969 3.68005C5.91498 3.68005 6.55969 3.03534 6.55969 2.24005C6.55969 1.44476 5.91498 0.800049 5.11969 0.800049C4.3244 0.800049 3.67969 1.44476 3.67969 2.24005C3.67969 3.03534 4.3244 3.68005 5.11969 3.68005Z" fill="#292929"/>
<path d="M10.8804 15.1999C11.6757 15.1999 12.3204 14.5552 12.3204 13.7599C12.3204 12.9647 11.6757 12.3199 10.8804 12.3199C10.0851 12.3199 9.44043 12.9647 9.44043 13.7599C9.44043 14.5552 10.0851 15.1999 10.8804 15.1999Z" fill="#292929"/>
<path d="M10.8804 9.44006C11.6757 9.44006 12.3204 8.79535 12.3204 8.00006C12.3204 7.20477 11.6757 6.56006 10.8804 6.56006C10.0851 6.56006 9.44043 7.20477 9.44043 8.00006C9.44043 8.79535 10.0851 9.44006 10.8804 9.44006Z" fill="#292929"/>
<path d="M10.8804 3.68005C11.6757 3.68005 12.3204 3.03534 12.3204 2.24005C12.3204 1.44476 11.6757 0.800049 10.8804 0.800049C10.0851 0.800049 9.44043 1.44476 9.44043 2.24005C9.44043 3.03534 10.0851 3.68005 10.8804 3.68005Z" fill="#292929"/>
</svg>
