<svg width="0" height="0" xmlns="http://www.w3.org/2000/svg" style="position:absolute;">
  <symbol id="ecc-content" viewBox="0 0 20 20">
    <path id="iconPrimary"
      d="M16.3408 5.29688L12.7197 1.67481C12.3008 1.25586 11.7207 1.01562 11.1289 1.01562H5.25C4.00977 1.01562 3 2.0254 3 3.26562V15.749C3 16.9893 4.00977 17.999 5.25 17.999H14.75C15.9902 17.999 17 16.9893 17 15.749V6.8877C17 6.28711 16.7656 5.72167 16.3408 5.29688ZM15.2803 6.35743C15.3264 6.40357 15.3542 6.46095 15.3862 6.51562H12.25C11.8369 6.51562 11.5 6.17871 11.5 5.76562V2.6294C11.5554 2.66163 11.6135 2.6897 11.6592 2.73536L15.2803 6.35743ZM14.75 16.499H5.25C4.83691 16.499 4.5 16.1621 4.5 15.749V3.26562C4.5 2.85254 4.83691 2.51563 5.25 2.51563H10V5.76562C10 7.00586 11.0098 8.01563 12.25 8.01563H15.5V15.749C15.5 16.1621 15.1631 16.499 14.75 16.499Z"
      fill="currentColor" />
    <path id="iconPrimary_2"
      d="M13 11.5H7C6.58594 11.5 6.25 11.1641 6.25 10.75C6.25 10.3359 6.58594 10 7 10H13C13.4141 10 13.75 10.3359 13.75 10.75C13.75 11.1641 13.4141 11.5 13 11.5Z"
      fill="currentColor" />
    <path id="iconPrimary_3"
      d="M13 14.5H7C6.58594 14.5 6.25 14.1641 6.25 13.75C6.25 13.3359 6.58594 13 7 13H13C13.4141 13 13.75 13.3359 13.75 13.75C13.75 14.1641 13.4141 14.5 13 14.5Z"
      fill="currentColor" />
  </symbol>

  <symbol id="ecc-star-wire" viewBox="0 0 20 20">
    <path id="iconPrimary"
      d="M5.5153 18.624C5.15397 18.624 4.7946 18.5117 4.48503 18.2861C3.88835 17.8535 3.62858 17.1143 3.82292 16.4033L4.78288 12.8906C4.87077 12.5713 4.76042 12.2315 4.50261 12.0244L1.65984 9.7461C1.08464 9.28614 0.860037 8.53516 1.08757 7.83497C1.31511 7.1338 1.93816 6.65919 2.67448 6.62403L6.31315 6.45118C6.64323 6.43556 6.93229 6.22559 7.04948 5.91602L8.33757 2.50879C8.59831 1.81934 9.24284 1.375 9.97917 1.375C10.7155 1.375 11.36 1.82031 11.6198 2.50879L12.9089 5.91602C13.026 6.22657 13.3141 6.43555 13.6452 6.45118L17.2839 6.62403C18.0202 6.65919 18.6423 7.1338 18.8698 7.83399C19.0973 8.53418 18.8737 9.28516 18.2995 9.7461L15.4557 12.0244C15.1979 12.2315 15.0876 12.5713 15.1745 12.8906L16.1354 16.4033C16.3298 17.1143 16.07 17.8535 15.4743 18.2861C14.8766 18.7178 14.0944 18.7373 13.4782 18.333L11.1081 16.7764C10.4313 16.334 9.51922 16.334 8.85223 16.7754L6.47821 18.333C6.18329 18.5274 5.84831 18.624 5.5153 18.624ZM9.97917 2.87501C9.91276 2.87501 9.7946 2.89649 9.73991 3.04005L8.45182 6.44728C8.1237 7.31642 7.3112 7.90626 6.38346 7.94923L2.74479 8.12208C2.59928 8.12892 2.53971 8.22169 2.51432 8.29786C2.48991 8.37501 2.48405 8.48438 2.59733 8.57618L5.4401 10.8545C6.16471 11.4346 6.47526 12.3897 6.23014 13.2852L5.27018 16.7988C5.22916 16.9473 5.31315 17.0342 5.36588 17.0723C5.43033 17.1191 5.53092 17.1592 5.65494 17.0791L8.02799 15.5225C9.18326 14.7617 10.7614 14.7569 11.9303 15.5225L14.3014 17.0791C14.4235 17.1582 14.527 17.1201 14.5924 17.0723C14.6569 17.0254 14.7262 16.9395 14.6881 16.7998L13.7272 13.2861C13.4821 12.3897 13.7926 11.4355 14.5182 10.8545L17.361 8.57618C17.4801 8.48048 17.4635 8.36036 17.443 8.29786C17.4186 8.22169 17.3581 8.12891 17.2135 8.12208L13.5749 7.94923C12.6452 7.90626 11.8336 7.31642 11.5055 6.4463L10.2174 3.03907C10.1657 2.90333 10.0592 2.87501 9.97917 2.87501Z"
      fill="currentColor" />
  </symbol>

  <symbol id="ecc-webpage" viewBox="0 0 20 20">
    <path id="iconPrimary"
      d="M4.95078 8.0998C5.44784 8.0998 5.85078 7.69686 5.85078 7.1998C5.85078 6.70275 5.44784 6.2998 4.95078 6.2998C4.45372 6.2998 4.05078 6.70275 4.05078 7.1998C4.05078 7.69686 4.45372 8.0998 4.95078 8.0998Z"
      fill="currentColor" />
    <path id="iconPrimary_2"
      d="M20.0992 3.59961H3.89922C2.41094 3.59961 1.19922 4.81133 1.19922 6.29961V17.6996C1.19922 19.1879 2.41094 20.3996 3.89922 20.3996H20.0992C21.5875 20.3996 22.7992 19.1879 22.7992 17.6996V6.29961C22.7992 4.81133 21.5875 3.59961 20.0992 3.59961ZM2.99922 6.29961C2.99922 5.8039 3.40351 5.39961 3.89922 5.39961H20.0992C20.5949 5.39961 20.9992 5.8039 20.9992 6.29961V8.99961H2.99922V6.29961ZM20.0992 18.5996H3.89922C3.40351 18.5996 2.99922 18.1953 2.99922 17.6996V10.7996H20.9992V17.6996C20.9992 18.1953 20.5949 18.5996 20.0992 18.5996Z"
      fill="currentColor" />
  </symbol>
</svg>
