<svg width="20" height="20" viewBox="0 0 20 20" fill="none" xmlns="http://www.w3.org/2000/svg">
<g id="Frame">
<path id="iconPrimary" d="M16.3408 5.29688L12.7197 1.67481C12.3008 1.25586 11.7207 1.01562 11.1289 1.01562H5.25C4.00977 1.01562 3 2.0254 3 3.26562V15.749C3 16.9893 4.00977 17.999 5.25 17.999H14.75C15.9902 17.999 17 16.9893 17 15.749V6.8877C17 6.28711 16.7656 5.72167 16.3408 5.29688ZM15.2803 6.35743C15.3264 6.40357 15.3542 6.46095 15.3862 6.51562H12.25C11.8369 6.51562 11.5 6.17871 11.5 5.76562V2.6294C11.5554 2.66163 11.6135 2.6897 11.6592 2.73536L15.2803 6.35743ZM14.75 16.499H5.25C4.83691 16.499 4.5 16.1621 4.5 15.749V3.26562C4.5 2.85254 4.83691 2.51563 5.25 2.51563H10V5.76562C10 7.00586 11.0098 8.01563 12.25 8.01563H15.5V15.749C15.5 16.1621 15.1631 16.499 14.75 16.499Z" fill="#292929"/>
<path id="iconPrimary_2" d="M13 11.5H7C6.58594 11.5 6.25 11.1641 6.25 10.75C6.25 10.3359 6.58594 10 7 10H13C13.4141 10 13.75 10.3359 13.75 10.75C13.75 11.1641 13.4141 11.5 13 11.5Z" fill="#292929"/>
<path id="iconPrimary_3" d="M13 14.5H7C6.58594 14.5 6.25 14.1641 6.25 13.75C6.25 13.3359 6.58594 13 7 13H13C13.4141 13 13.75 13.3359 13.75 13.75C13.75 14.1641 13.4141 14.5 13 14.5Z" fill="#292929"/>
</g>
</svg>
