<svg width="20" height="20" viewBox="0 0 20 20" fill="none" xmlns="http://www.w3.org/2000/svg">
<g id="Frame">
<path id="iconPrimary" d="M5.5153 18.624C5.15397 18.624 4.7946 18.5117 4.48503 18.2861C3.88835 17.8535 3.62858 17.1143 3.82292 16.4033L4.78288 12.8906C4.87077 12.5713 4.76042 12.2315 4.50261 12.0244L1.65984 9.7461C1.08464 9.28614 0.860037 8.53516 1.08757 7.83497C1.31511 7.1338 1.93816 6.65919 2.67448 6.62403L6.31315 6.45118C6.64323 6.43556 6.93229 6.22559 7.04948 5.91602L8.33757 2.50879C8.59831 1.81934 9.24284 1.375 9.97917 1.375C10.7155 1.375 11.36 1.82031 11.6198 2.50879L12.9089 5.91602C13.026 6.22657 13.3141 6.43555 13.6452 6.45118L17.2839 6.62403C18.0202 6.65919 18.6423 7.1338 18.8698 7.83399C19.0973 8.53418 18.8737 9.28516 18.2995 9.7461L15.4557 12.0244C15.1979 12.2315 15.0876 12.5713 15.1745 12.8906L16.1354 16.4033C16.3298 17.1143 16.07 17.8535 15.4743 18.2861C14.8766 18.7178 14.0944 18.7373 13.4782 18.333L11.1081 16.7764C10.4313 16.334 9.51922 16.334 8.85223 16.7754L6.47821 18.333C6.18329 18.5274 5.84831 18.624 5.5153 18.624ZM9.97917 2.87501C9.91276 2.87501 9.7946 2.89649 9.73991 3.04005L8.45182 6.44728C8.1237 7.31642 7.3112 7.90626 6.38346 7.94923L2.74479 8.12208C2.59928 8.12892 2.53971 8.22169 2.51432 8.29786C2.48991 8.37501 2.48405 8.48438 2.59733 8.57618L5.4401 10.8545C6.16471 11.4346 6.47526 12.3897 6.23014 13.2852L5.27018 16.7988C5.22916 16.9473 5.31315 17.0342 5.36588 17.0723C5.43033 17.1191 5.53092 17.1592 5.65494 17.0791L8.02799 15.5225C9.18326 14.7617 10.7614 14.7569 11.9303 15.5225L14.3014 17.0791C14.4235 17.1582 14.527 17.1201 14.5924 17.0723C14.6569 17.0254 14.7262 16.9395 14.6881 16.7998L13.7272 13.2861C13.4821 12.3897 13.7926 11.4355 14.5182 10.8545L17.361 8.57618C17.4801 8.48048 17.4635 8.36036 17.443 8.29786C17.4186 8.22169 17.3581 8.12891 17.2135 8.12208L13.5749 7.94923C12.6452 7.90626 11.8336 7.31642 11.5055 6.4463L10.2174 3.03907C10.1657 2.90333 10.0592 2.87501 9.97917 2.87501Z" fill="#292929"/>
</g>
</svg>
