<svg width="14" height="14" viewBox="0 0 14 14" fill="none" xmlns="http://www.w3.org/2000/svg">
<g id="Frame" clip-path="url(#clip0_1601_63024)">
<path id="iconFill" fill-rule="evenodd" clip-rule="evenodd" d="M13.9996 3.21144C13.9996 1.37543 12.5116 0 10.7901 0C9.96805 0 9.14584 0.312433 8.5197 0.938257L1.23921 8.22324C0.949785 8.5127 0.783418 8.91307 0.783418 9.32028L0.777344 12.4359C0.777344 12.8659 1.12422 13.2146 1.55371 13.2154L4.67663 13.2222C5.09292 13.2222 5.49326 13.0558 5.78116 12.7664L13.0791 5.46697C13.693 4.84318 13.9996 4.02716 13.9996 3.21144ZM2.33292 11.6666V9.33331C3.61693 9.33673 4.66626 10.3818 4.66626 11.6666H2.33292ZM11.9609 4.38436L11.1069 5.23867L8.76469 2.89454L9.61967 2.03909C10.2639 1.39333 11.316 1.39333 11.9617 2.03909C12.6036 2.6803 12.6074 3.72796 11.9609 4.38436Z" fill="#292929"/>
</g>
<defs>
<clipPath id="clip0_1601_63024">
<rect width="14" height="14" fill="white"/>
</clipPath>
</defs>
</svg>
