<svg xmlns="http://www.w3.org/2000/svg" width="134" height="96" viewBox="0 0 134 96" fill="none">
  <path d="M32.6503 34.0252C35.4522 34.0252 37.7235 31.7539 37.7235 28.9521C37.7235 26.1502 35.4522 23.8789 32.6503 23.8789C29.8485 23.8789 27.5771 26.1502 27.5771 28.9521C27.5771 31.7539 29.8485 34.0252 32.6503 34.0252Z" stroke="#909090" stroke-width="2" stroke-linecap="round" stroke-linejoin="round"/>
  <path d="M44.8047 25.7812H102.935" stroke="#909090" stroke-width="2" stroke-linecap="round" stroke-linejoin="round"/>
  <path d="M44.8047 32.1211H95.5364" stroke="#909090" stroke-width="2" stroke-linecap="round" stroke-linejoin="round"/>
  <path d="M32.6503 53.0487C35.4522 53.0487 37.7235 50.7773 37.7235 47.9755C37.7235 45.1737 35.4522 42.9023 32.6503 42.9023C29.8485 42.9023 27.5771 45.1737 27.5771 47.9755C27.5771 50.7773 29.8485 53.0487 32.6503 53.0487Z" stroke="#909090" stroke-width="2" stroke-linecap="round" stroke-linejoin="round"/>
  <path d="M44.8047 44.8047H102.935" stroke="#909090" stroke-width="2" stroke-linecap="round" stroke-linejoin="round"/>
  <path d="M44.8047 51.1445H95.5364" stroke="#909090" stroke-width="2" stroke-linecap="round" stroke-linejoin="round"/>
  <path d="M32.6503 72.0721C35.4522 72.0721 37.7235 69.8008 37.7235 66.999C37.7235 64.1971 35.4522 61.9258 32.6503 61.9258C29.8485 61.9258 27.5771 64.1971 27.5771 66.999C27.5771 69.8008 29.8485 72.0721 32.6503 72.0721Z" stroke="#909090" stroke-width="2" stroke-linecap="round" stroke-linejoin="round"/>
  <path d="M44.8047 63.8281H102.935" stroke="#909090" stroke-width="2" stroke-linecap="round" stroke-linejoin="round"/>
  <path d="M44.8047 70.1719H95.5364" stroke="#909090" stroke-width="2" stroke-linecap="round" stroke-linejoin="round"/>
  <path d="M129.886 2H4.11382C2.94639 2 2 2.94639 2 4.11382V91.8374C2 93.0048 2.94639 93.9512 4.11382 93.9512H129.886C131.054 93.9512 132 93.0048 132 91.8374V4.11382C132 2.94639 131.054 2 129.886 2Z" stroke="#909090" stroke-width="3" stroke-linecap="round" stroke-linejoin="round"/>
</svg>
