<svg width="20" height="20" viewBox="0 0 20 20" fill="none" xmlns="http://www.w3.org/2000/svg">
<path d="M10.0342 16.6616C5.14258 16.6616 0.75 12.273 0.75 10.2007C0.75 8.51563 3.34814 5.6504 6.09717 4.30323C7.29834 3.69727 8.64453 3.36817 9.99024 3.35059C15.148 3.35059 19.25 8.27002 19.25 10.2007C19.25 12.273 14.8897 16.6616 10.0342 16.6616ZM10 4.85059C8.88916 4.86524 7.76855 5.13965 6.76904 5.64405C6.7666 5.64551 6.76367 5.64698 6.76074 5.64844C4.15478 6.92383 2.25 9.39844 2.25 10.2007C2.25 11.3452 5.92969 15.1616 10.0342 15.1616C14.1025 15.1616 17.75 11.3452 17.75 10.2007C17.75 9.15186 14.2685 4.85059 10 4.85059Z" fill="#292929"/>
<path d="M9.82904 7.64345C10.0518 7.00654 9.35642 6.38457 8.72917 6.6332C8.25598 6.82077 7.81642 7.11419 7.44672 7.51417C5.95526 9.12777 6.23938 11.7501 8.20457 12.9766C9.40482 13.7257 11.0022 13.6648 12.1442 12.8295C12.8126 12.3406 13.248 11.6939 13.461 10.9958C13.6698 10.3114 13.003 9.74538 12.3422 10.0198C11.8057 10.2427 11.3101 10.148 11.0973 10.0867C10.5267 9.92233 10.063 9.49669 9.85021 8.94291C9.68277 8.50716 9.68684 8.05002 9.82904 7.64345Z" fill="#292929"/>
</svg>
