<svg width="20" height="20" viewBox="0 0 20 20" fill="none" xmlns="http://www.w3.org/2000/svg">
<path d="M9.96582 16.6827C5.11035 16.6827 0.75 12.294 0.75 10.2217C0.75 9.3018 1.61426 7.86234 2.95117 6.55375C3.24609 6.26566 3.7207 6.26957 4.01172 6.56547C4.30176 6.86137 4.2959 7.33598 4 7.62602C2.69043 8.90727 2.25 9.94536 2.25 10.2217C2.25 11.3663 5.89746 15.1827 9.96582 15.1827C10.5703 15.1827 11.1973 15.0977 11.8291 14.9307C12.2266 14.8292 12.6397 15.0645 12.7461 15.4649C12.8516 15.8653 12.6123 16.2754 12.2119 16.3819C11.456 16.5811 10.7002 16.6827 9.96582 16.6827Z" fill="#292929"/>
<path d="M16.604 13.8428C16.4009 13.8428 16.1987 13.7607 16.0503 13.5986C15.771 13.293 15.7925 12.8184 16.0981 12.5391C17.2378 11.4971 17.7505 10.5566 17.7505 10.2217C17.7505 9.41992 15.8462 6.94531 13.2397 5.66992C12.2309 5.16015 11.1108 4.88574 9.9907 4.87207C9.37058 4.87207 8.72605 4.96582 8.08543 5.15137C7.68504 5.26075 7.27098 5.03614 7.15672 4.63867C7.04149 4.24121 7.27098 3.82519 7.66942 3.70996C8.44481 3.48535 9.22899 3.37207 10.0005 3.37207C11.3569 3.38867 12.7046 3.71875 13.9077 4.32617C16.6499 5.66894 19.2505 8.53613 19.2505 10.2217C19.2505 11.1406 18.4507 12.4209 17.1098 13.6465C16.9663 13.7783 16.7846 13.8428 16.604 13.8428Z" fill="#292929"/>
<path d="M18.7803 17.7412L13.0022 11.9631C13.2056 11.6667 13.3599 11.3484 13.4611 11.0171C13.6699 10.3325 13.0029 9.7666 12.3423 10.041C11.8468 10.2468 11.3965 10.1816 11.1611 10.1221L9.78931 8.75024C9.69483 8.38086 9.70996 8.00537 9.8291 7.66455C10.0518 7.02783 9.35644 6.40576 8.72925 6.6543C8.49378 6.74756 8.26685 6.86768 8.05249 7.01343L2.28028 1.24121C1.98731 0.948242 1.5127 0.948242 1.21973 1.24121C0.926757 1.53418 0.926757 2.00879 1.21973 2.30176L17.7197 18.8018C17.8662 18.9482 18.0576 19.0215 18.25 19.0215C18.4424 19.0215 18.6338 18.9483 18.7803 18.8018C19.0732 18.5088 19.0732 18.0342 18.7803 17.7412Z" fill="#292929"/>
<path d="M8.20471 12.9978C8.90002 13.4316 9.72766 13.5852 10.5238 13.4824L6.54211 9.50073C6.37378 10.8164 6.92785 12.2009 8.20471 12.9978Z" fill="#292929"/>
</svg>
