<?xml version="1.0" encoding="UTF-8"?>
<svg version="1.1" xmlns="http://www.w3.org/2000/svg" width="4177" height="4177">
<path d="M0 0 C3.36539631 0.19671043 6.73119183 0.38551169 10.0970459 0.57421875 C124.73255333 7.09467795 239.0192515 22.7266259 666.14099121 151.18359375 C666.79984314 151.46187012 667.45869507 151.74014648 668.13751221 152.02685547 C676.81584198 155.69867811 685.45609166 159.45549159 694.07312012 163.26879883 C696.27734687 164.24391543 698.48262452 165.21663419 700.68786621 166.18945312 C724.87910545 176.87567845 748.76438083 188.09970383 772.45526123 199.85180664 C775.29343363 201.25918618 778.13292027 202.66389079 780.97253418 204.06835938 C786.0579964 206.58493059 791.14007308 209.10823091 796.2197876 211.63638306 C798.16412366 212.60389757 800.10896425 213.57039905 802.05438232 214.53573608 C815.14460522 221.0374577 828.02746093 227.85369456 840.82614136 234.9112854 C843.77198717 236.53040736 846.73120448 238.12228016 849.69567871 239.70703125 C861.61180582 246.08781352 873.34895503 252.71991199 884.99645996 259.578125 C890.31141789 262.70693365 895.65658456 265.78033667 901.00915527 268.84423828 C912.63983173 275.50818132 924.11353271 282.37382973 935.46325684 289.50488281 C938.29314771 291.27898289 941.13039472 293.04084878 943.96911621 294.80078125 C998.86962317 328.88295179 1051.86407504 365.87743576 1103.14099121 405.18359375 C1104.3818491 406.13284849 1105.62273138 407.08207133 1106.86364746 408.03125 C1118.87846597 417.2339006 1130.72978181 426.62219028 1142.45739746 436.1875 C1145.39702529 438.58355428 1148.3562913 440.95299285 1151.32849121 443.30859375 C1155.71362255 446.80345514 1159.98974523 450.41774568 1164.25939941 454.05175781 C1167.64505756 456.93008796 1171.06228958 459.76176256 1174.51599121 462.55859375 C1180.22043751 467.20328805 1185.7636771 472.02333115 1191.30895996 476.85546875 C1193.77835579 479.0058099 1196.25863455 481.14189294 1198.75427246 483.26171875 C1205.73771455 489.19373426 1212.54886651 495.26722568 1219.25427246 501.51171875 C1221.5419283 503.62911604 1223.84755158 505.7058986 1226.20349121 507.74609375 C1231.07860789 511.96847514 1235.80946863 516.34805826 1240.55114746 520.71875 C1242.10040501 522.1461986 1243.65174839 523.57134779 1245.20349121 524.99609375 C1247.91486336 527.48781718 1250.61633578 529.99004408 1253.31619263 532.49423218 C1254.46181558 533.5548267 1255.60916244 534.6135653 1256.75900269 535.66958618 C1271.73327668 549.43074443 1286.01673122 563.9062224 1300.38269043 578.29492188 C1304.05606107 581.97403728 1307.73397116 585.6485771 1311.41318703 589.32184601 C1314.27701202 592.18204631 1317.13843761 595.04463751 1319.99915695 597.90794373 C1321.35467772 599.26412598 1322.71092616 600.61958137 1324.0679512 601.97425842 C1336.7855755 614.6746643 1336.7855755 614.6746643 1341.8913269 620.71374512 C1343.53652136 622.64881425 1345.31463931 624.4202195 1347.14099121 626.18359375 C1350.24345123 629.24476628 1353.12205546 632.41501643 1355.96130371 635.71875 C1358.95442458 639.10344403 1362.0492652 642.38908534 1365.14099121 645.68359375 C1369.34077772 650.16292838 1373.50794386 654.65214896 1377.51208496 659.30859375 C1379.4776421 661.57110556 1381.4977243 663.78050058 1383.51599121 665.99609375 C1386.64521948 669.45889457 1389.6459947 672.99038378 1392.57849121 676.62109375 C1395.65435709 680.42446878 1398.82852287 684.08442027 1402.14099121 687.68359375 C1406.18053939 692.07737923 1409.9877874 696.60198199 1413.73474121 701.24609375 C1416.43878282 704.54713156 1419.22221978 707.77114076 1422.01599121 710.99609375 C1426.4494694 716.12930018 1430.70307811 721.36956188 1434.85974121 726.72851562 C1438.48908239 731.39407495 1442.2374705 735.95088663 1446.01599121 740.49609375 C1451.8151245 747.48949149 1457.37918677 754.63339005 1462.86364746 761.875 C1465.64794131 765.54919732 1468.47748764 769.18572716 1471.32067871 772.81445312 C1478.52216499 782.00835061 1485.49136128 791.35543594 1492.38220215 800.78369141 C1494.15107855 803.19735812 1495.92949287 805.60368159 1497.71130371 808.0078125 C1504.81066688 817.5903959 1511.78773186 827.24599187 1518.62243652 837.01904297 C1520.14934224 839.19549732 1521.68696548 841.36401934 1523.22692871 843.53125 C1543.45782147 872.09269 1562.61440533 901.49284996 1581.14099121 931.18359375 C1581.73750488 932.13943359 1582.33401855 933.09527344 1582.9486084 934.08007812 C1593.65369699 951.2719341 1603.99867534 968.65538362 1614.14099121 986.18359375 C1614.48750732 986.78210144 1614.83402344 987.38060913 1615.19104004 987.99725342 C1624.20219289 1003.56900104 1633.00193925 1019.24363023 1641.49157715 1035.10693359 C1643.20307011 1038.29938982 1644.92513761 1041.48597651 1646.64880371 1044.671875 C1660.2275055 1069.81984165 1673.54501615 1095.13901813 1685.6595459 1121.02929688 C1687.05020713 1123.99029607 1688.45279811 1126.94525308 1689.85961914 1129.89859009 C1729.64995432 1213.44163384 1763.42848209 1300.0188471 1840.14099121 1581.18359375 C1840.42752563 1582.6117038 1840.42752563 1582.6117038 1840.71984863 1584.06866455 C1860.20270403 1681.35041899 1872.46869816 1779.88785696 1878.04098511 1891.6423645 C1878.11142626 1893.43232652 1878.18694822 1895.22209218 1878.2661438 1897.01168823 C1879.32879275 1921.12123768 1879.32851273 1945.23175038 1879.32629395 1969.3605957 C1879.32621336 1973.99670368 1879.33306313 1978.63271141 1879.34680176 1983.26879883 C1879.47684107 2027.89749974 1878.28169181 2072.47094206 1875.04724121 2116.9921875 C1874.97791382 2117.9549913 1874.90858643 2118.9177951 1874.8371582 2119.90977478 C1867.10001129 2225.64849374 1851.379461 2330.56400706 1779.14099121 2603.18359375 C1778.84964294 2604.06623901 1778.55829468 2604.94888428 1778.25811768 2605.85827637 C1760.40033932 2659.84714075 1740.10171738 2713.15399952 1717.14099121 2765.18359375 C1716.41589355 2766.83560791 1716.41589355 2766.83560791 1715.67614746 2768.52099609 C1705.13561108 2792.52124988 1694.13705242 2816.29550348 1682.72692871 2839.89404297 C1681.06464537 2843.34195027 1679.414457 2846.79546682 1677.76599121 2850.25 C1669.88703889 2866.73748611 1661.68333742 2883.02721592 1653.14099121 2899.18359375 C1652.52578613 2900.34810059 1651.91058105 2901.51260742 1651.2767334 2902.71240234 C1643.32386581 2917.74546395 1635.15042355 2932.64214616 1626.71618652 2947.41113281 C1625.14341853 2950.17932149 1623.58875503 2952.95691346 1622.03942871 2955.73828125 C1614.39372082 2969.43738748 1606.34368777 2982.86295194 1598.15574646 2996.24136353 C1595.009042 3001.38737728 1591.91603052 3006.56446904 1588.82849121 3011.74609375 C1576.02187336 3033.17154803 1562.30302108 3054.04685695 1548.45349121 3074.80859375 C1547.67503845 3075.97631821 1547.67503845 3075.97631821 1546.88085938 3077.16763306 C1538.67223285 3089.47381664 1530.3556656 3101.69415762 1521.8314209 3113.78466797 C1520.21279305 3116.08169819 1518.60164454 3118.38378267 1516.99255371 3120.6875 C1510.12501393 3130.49843033 1503.05374359 3140.15102016 1495.92321777 3149.77197266 C1494.1524189 3152.16813036 1492.3912795 3154.57107619 1490.63317871 3156.9765625 C1482.66415763 3167.86952509 1474.48231891 3178.57352541 1466.14099121 3189.18359375 C1465.16169808 3190.43219249 1464.18252524 3191.68088558 1463.20349121 3192.9296875 C1461.39612759 3195.23377478 1459.58600667 3197.53565496 1457.77380371 3199.8359375 C1456.01201298 3202.07305964 1454.25735435 3204.31550198 1452.50817871 3206.5625 C1445.72606961 3215.26142705 1438.7456266 3223.7854582 1431.71130371 3232.28125 C1429.63225101 3234.79990339 1427.57430992 3237.33548374 1425.51599121 3239.87109375 C1421.61832266 3244.64537549 1417.61108834 3249.3193982 1413.58630371 3253.98632812 C1410.50324803 3257.56880736 1407.48554318 3261.19325641 1404.51599121 3264.87109375 C1400.66637984 3269.61336862 1396.6138645 3274.13288336 1392.48083496 3278.62890625 C1389.91307151 3281.43244097 1387.41202246 3284.2870425 1384.91833496 3287.15625 C1382.08544839 3290.38760853 1379.19655254 3293.56827456 1376.31677246 3296.7578125 C1374.46655558 3298.82062163 1372.64154313 3300.90071745 1370.82849121 3302.99609375 C1366.72912286 3307.70137335 1362.47624286 3312.26315938 1358.23474121 3316.83984375 C1355.43852749 3319.85753975 1352.66338262 3322.89398389 1349.89099121 3325.93359375 C1338.75793238 3338.08630454 1327.44595214 3350.0237977 1315.69958496 3361.58813477 C1311.50729027 3365.73331998 1307.50638192 3369.9609015 1303.66223145 3374.4309082 C1301.75903892 3376.62365723 1299.760161 3378.69719965 1297.70349121 3380.74609375 C1297.02415527 3381.42800781 1296.34481934 3382.10992188 1295.64489746 3382.8125 C1293.66061589 3384.69153107 1291.64988854 3386.46814625 1289.57458496 3388.2421875 C1283.98370515 3393.10169654 1278.83995324 3398.41398908 1273.64099121 3403.68359375 C1267.83663474 3409.56681886 1262.05732552 3415.40590761 1255.76794434 3420.77929688 C1253.78958992 3422.48690411 1251.95573595 3424.3040367 1250.14099121 3426.18359375 C1247.07981868 3429.28605377 1243.90956853 3432.16465799 1240.60583496 3435.00390625 C1237.22114094 3437.99702712 1233.93549962 3441.09186774 1230.64099121 3444.18359375 C1226.16165658 3448.38338026 1221.672436 3452.5505464 1217.01599121 3456.5546875 C1214.7534794 3458.52024464 1212.54408439 3460.54032684 1210.32849121 3462.55859375 C1206.86569039 3465.68782202 1203.33420118 3468.68859724 1199.70349121 3471.62109375 C1195.90011618 3474.69695963 1192.24016469 3477.87112541 1188.64099121 3481.18359375 C1184.22458977 3485.2434302 1179.67935599 3489.07683196 1175.01208496 3492.84375 C1171.91112489 3495.37092698 1168.86924028 3497.95974495 1165.82849121 3500.55859375 C1160.77977746 3504.86255083 1155.61310394 3508.9864205 1150.37438965 3513.0559082 C1146.3564262 3516.19083337 1142.44729081 3519.42939619 1138.57849121 3522.74609375 C1133.41362652 3527.16413748 1128.10820471 3531.36060451 1122.69567871 3535.47265625 C1119.38480354 3537.98817104 1116.10830415 3540.54610185 1112.83337402 3543.1081543 C1096.18265943 3556.12621515 1079.19878059 3568.70553617 1062.14099121 3581.18359375 C1061.3910791 3581.73257324 1060.64116699 3582.28155273 1059.86853027 3582.84716797 C1050.80644302 3589.46976492 1041.65671002 3595.94085739 1032.3717041 3602.24731445 C1027.55102024 3605.52354061 1022.76853685 3608.84685421 1018.01086426 3612.21386719 C1006.22840184 3620.54425615 994.18025158 3628.44383807 982.07019043 3636.28564453 C979.56041418 3637.91183228 977.05454038 3639.54370074 974.55114746 3641.1796875 C939.58484302 3663.99301835 903.71956757 3685.47992033 867.23864746 3705.7734375 C863.41609378 3707.90267485 859.61078206 3710.05679767 855.82458496 3712.25 C839.6304448 3721.60194718 822.99268068 3730.03923908 806.32421875 3738.50547791 C800.68008367 3741.37951424 795.07359429 3744.31992807 789.47692871 3747.28515625 C780.90426824 3751.81931485 772.24673845 3756.1504484 763.51599121 3760.37109375 C762.40597244 3760.9091011 762.40597244 3760.9091011 761.27352905 3761.45797729 C746.40363459 3768.65811388 731.40698188 3775.5580839 716.32751465 3782.30664062 C712.80409195 3783.88409581 709.28671825 3785.47459436 705.77053833 3787.06811523 C656.21539787 3809.50627037 605.47594167 3829.21790739 554.14099121 3847.18359375 C553.2433606 3847.498125 552.34572998 3847.81265625 551.42089844 3848.13671875 C520.563917 3858.93700112 489.50211271 3868.94767277 458.14099121 3878.18359375 C457.25119568 3878.44573669 456.36140015 3878.70787964 455.44464111 3878.97796631 C362.81115799 3906.18611048 267.86190809 3926.09166295 -14.37420654 3956.08358765 C-17.09219387 3956.19297878 -19.80918637 3956.31936821 -22.52648926 3956.44458008 C-45.4710895 3957.43275997 -68.42623643 3957.37098255 -91.38781738 3957.36889648 C-96.07926345 3957.36881593 -100.7706104 3957.37566021 -105.46203613 3957.3894043 C-150.2627909 3957.51847097 -195.00606478 3956.33837167 -239.69885254 3953.0859375 C-240.66330795 3953.01640366 -241.62776337 3952.94686981 -242.6214447 3952.87522888 C-353.98767892 3944.72838034 -464.37465641 3927.6561815 -572.85900879 3901.18359375 C-573.79796997 3900.95518799 -574.73693115 3900.72678223 -575.7043457 3900.49145508 C-627.37325379 3887.90603957 -678.37977359 3872.89380616 -728.85900879 3856.18359375 C-729.72191528 3855.89846924 -730.58482178 3855.61334473 -731.47387695 3855.31958008 C-811.87835945 3828.72105898 -890.3196917 3796.05932171 -966.37435913 3758.85325623 C-971.97016646 3756.11983966 -977.59909895 3753.46009701 -983.23400879 3750.80859375 C-991.2051136 3747.03994216 -999.01890027 3743.02262258 -1006.79650879 3738.87109375 C-1010.44768084 3736.92341439 -1014.11620339 3735.01314819 -1017.79650879 3733.12109375 C-1029.12995073 3727.29110113 -1040.3402691 3721.30937304 -1051.40710449 3714.98681641 C-1057.82591746 3711.32065595 -1064.2919731 3707.75758767 -1070.79650879 3704.24609375 C-1082.64206689 3697.82648348 -1094.26935033 3691.05249233 -1105.85900879 3684.18359375 C-1106.88429688 3683.57612305 -1107.90958496 3682.96865234 -1108.96594238 3682.34277344 C-1123.43713265 3673.75099907 -1137.77582205 3664.96016766 -1152.00939941 3655.98046875 C-1154.70117737 3654.28311733 -1157.39703004 3652.59241257 -1160.09338379 3650.90234375 C-1208.73709218 3620.29383093 -1255.75240902 3587.02564915 -1301.3692627 3552.08691406 C-1303.70912147 3550.29817715 -1306.05428916 3548.51672358 -1308.40197754 3546.73828125 C-1316.05995894 3540.92880796 -1323.60867961 3535.01261826 -1331.04504395 3528.92163086 C-1335.33535548 3525.40910443 -1339.67060349 3521.96370177 -1344.04650879 3518.55859375 C-1349.74940032 3514.11227154 -1355.28223082 3509.49217511 -1360.78088379 3504.796875 C-1363.58608199 3502.40477106 -1366.43364036 3500.06903524 -1369.29650879 3497.74609375 C-1375.30474343 3492.85243017 -1381.17360012 3487.80332583 -1387.04309082 3482.74511719 C-1388.86201527 3481.18100845 -1390.68580958 3479.62278299 -1392.51135254 3478.06640625 C-1398.62664686 3472.84995867 -1404.68720445 3467.58970353 -1410.64025879 3462.1875 C-1412.65209272 3460.37047393 -1414.68561312 3458.58414983 -1416.73400879 3456.80859375 C-1421.14650853 3452.96775389 -1425.43763409 3448.99682038 -1429.73400879 3445.02734375 C-1432.04558612 3442.90563523 -1434.39697788 3440.83551998 -1436.76525879 3438.77734375 C-1440.71502962 3435.33347336 -1444.549133 3431.78093515 -1448.35900879 3428.18359375 C-1449.59851301 3427.01684304 -1450.83810149 3425.85018182 -1452.07775879 3424.68359375 C-1452.75488419 3424.04470718 -1453.43200958 3423.40582062 -1454.12965393 3422.74757385 C-1456.17681461 3420.82445299 -1458.22955443 3418.90824445 -1460.28746033 3416.99668884 C-1469.76746166 3408.17560076 -1479.02750142 3399.16395502 -1488.17541504 3390 C-1489.57052877 3388.60556286 -1490.96579065 3387.21127393 -1492.3611908 3385.81712341 C-1495.25083793 3382.92893267 -1498.13871446 3380.038987 -1501.02526855 3377.14770508 C-1504.70651768 3373.46071665 -1508.39229865 3369.77829616 -1512.07939243 3366.09715366 C-1514.94750889 3363.2326624 -1517.8132253 3360.36577957 -1520.67823601 3357.4981823 C-1522.03654779 3356.13920888 -1523.39558765 3354.78096274 -1524.75540352 3353.42349434 C-1537.50806365 3340.68805683 -1537.50806365 3340.68805683 -1542.61058044 3334.65220642 C-1544.25525704 3332.71745951 -1546.03307836 3330.94656106 -1547.85900879 3329.18359375 C-1550.96146881 3326.12242122 -1553.84007303 3322.95217107 -1556.67932129 3319.6484375 C-1559.67244215 3316.26374347 -1562.76728278 3312.97810216 -1565.85900879 3309.68359375 C-1570.0587953 3305.20425912 -1574.22596144 3300.71503854 -1578.23010254 3296.05859375 C-1580.19565968 3293.79608194 -1582.21574188 3291.58668692 -1584.23400879 3289.37109375 C-1587.36323706 3285.90829293 -1590.36401228 3282.37680372 -1593.29650879 3278.74609375 C-1596.37237467 3274.94271872 -1599.54654045 3271.28276723 -1602.85900879 3267.68359375 C-1606.89855697 3263.28980827 -1610.70580498 3258.76520551 -1614.45275879 3254.12109375 C-1617.1568004 3250.82005594 -1619.94023736 3247.59604674 -1622.73400879 3244.37109375 C-1627.16509133 3239.24066106 -1631.41631794 3234.00317288 -1635.57116699 3228.64746094 C-1639.26669343 3223.89748114 -1643.07915523 3219.25278803 -1646.92150879 3214.62109375 C-1652.26400234 3208.16959105 -1657.43210936 3201.62360224 -1662.50158691 3194.95458984 C-1664.0190183 3192.97483314 -1665.55449169 3191.00999494 -1667.09338379 3189.046875 C-1674.95005792 3179.0225374 -1682.58909591 3168.86128714 -1690.10461426 3158.57910156 C-1692.44665263 3155.38120559 -1694.80314128 3152.19408911 -1697.15930176 3149.0065918 C-1714.98143875 3124.88078125 -1732.17768561 3100.37601803 -1748.74230957 3075.36816406 C-1750.97762031 3072.00514292 -1753.22701957 3068.65190361 -1755.48010254 3065.30078125 C-1763.41343182 3053.49099851 -1771.19249776 3041.62856506 -1778.50646973 3029.421875 C-1781.06230721 3025.1922869 -1783.6861022 3021.00462887 -1786.29650879 3016.80859375 C-1806.19589443 2984.72310301 -1825.05838742 2952.01190474 -1842.92321777 2918.75219727 C-1844.38248061 2916.04900786 -1845.86760228 2913.36098112 -1847.35925293 2910.67553711 C-1855.65320422 2895.69365003 -1863.39343207 2880.45749121 -1871.03942871 2865.13842773 C-1872.45088178 2862.31091851 -1873.86686524 2859.48576116 -1875.28747559 2856.6628418 C-1884.733113 2837.8920454 -1893.75361954 2818.97578645 -1902.3384161 2799.79554749 C-1904.64668449 2794.6414229 -1906.99362785 2789.50557517 -1909.34902 2784.3728466 C-1925.62317537 2748.90881548 -1940.09075349 2712.68367946 -1953.85900879 2676.18359375 C-1954.12566345 2675.47710693 -1954.39231812 2674.77062012 -1954.66705322 2674.04272461 C-1958.15490123 2664.78873305 -1961.53673481 2655.49824346 -1964.85900879 2646.18359375 C-1965.12846313 2645.43001587 -1965.39791748 2644.67643799 -1965.67553711 2643.90002441 C-1987.93657312 2581.61524408 -2006.87787055 2518.36670426 -2022.85900879 2454.18359375 C-2023.11039612 2453.17522461 -2023.36178345 2452.16685547 -2023.62078857 2451.12792969 C-2045.26701627 2364.06086582 -2060.43875319 2275.23817295 -2078.04650879 2077.74609375 C-2078.10203918 2076.64510849 -2078.10203918 2076.64510849 -2078.15869141 2075.5218811 C-2078.38230049 2070.98630045 -2078.57577452 2066.45001947 -2078.75186157 2061.91235352 C-2078.82731775 2059.99068163 -2078.90613892 2058.0691404 -2078.98739624 2056.14770508 C-2080.05768562 2030.4569451 -2080.06023681 2004.76763317 -2080.04650879 1979.05859375 C-2080.04624191 1977.93860615 -2080.04597504 1976.81861855 -2080.04570007 1975.66469193 C-2080.03589071 1942.85409044 -2079.96079724 1910.08974827 -2078.04260254 1877.32458496 C-2077.84589211 1873.95918865 -2077.65709085 1870.59339313 -2077.46838379 1867.22753906 C-2070.82835166 1750.48983262 -2054.8040645 1634.0329116 -1987.6260376 1376.59863281 C-1986.87567205 1374.23605908 -1986.1295993 1371.87217384 -1985.3848877 1369.5078125 C-1959.25705134 1286.6448209 -1926.71602695 1205.63080746 -1877.85900879 1104.18359375 C-1877.41736389 1103.28934692 -1876.97571899 1102.3951001 -1876.52069092 1101.47375488 C-1873.55828773 1095.47934424 -1870.58656673 1089.48963501 -1867.60635376 1083.50405884 C-1866.62935265 1081.54139473 -1865.65345075 1079.57818295 -1864.67880249 1077.61434937 C-1858.11853007 1064.40729513 -1851.25042931 1051.40474976 -1844.1282959 1038.49240112 C-1842.50996085 1035.54868267 -1840.91922542 1032.59142323 -1839.33557129 1029.62890625 C-1832.8884774 1017.58959984 -1826.17757417 1005.73752038 -1819.24963379 993.96875 C-1816.61443042 989.48934991 -1814.03131234 984.98371422 -1811.4744873 980.45922852 C-1800.36920683 960.81755874 -1788.52156719 941.5904559 -1776.38195801 922.57324219 C-1774.7032191 919.9391453 -1773.03270797 917.29993258 -1771.36291504 914.66015625 C-1765.12911867 904.8152834 -1758.82896704 895.02819085 -1752.31994629 885.36328125 C-1750.573456 882.75755509 -1748.84106808 880.14268427 -1747.10900879 877.52734375 C-1739.6639695 866.2955265 -1732.127328 855.15323033 -1724.29016113 844.19140625 C-1722.32067905 841.42835257 -1720.3706329 838.65179825 -1718.41955566 835.87573242 C-1707.12827887 819.8239385 -1695.53921476 804.04405447 -1683.60217285 788.46582031 C-1681.37691432 785.55241461 -1679.17741516 782.62105317 -1676.98400879 779.68359375 C-1666.19894591 765.2626574 -1655.08782897 751.0929377 -1643.69567871 737.14746094 C-1640.19090076 732.84937352 -1636.75783525 728.50316989 -1633.35900879 724.12109375 C-1627.96369763 717.18863162 -1622.2109134 710.59184067 -1616.42590332 703.984375 C-1614.0210105 701.22050939 -1611.6569559 698.4229218 -1609.29650879 695.62109375 C-1601.03087753 685.82718563 -1592.74848033 676.07169604 -1584.08557129 666.625 C-1582.16767672 664.52204542 -1580.28524834 662.39690219 -1578.42150879 660.24609375 C-1574.6045531 655.85163176 -1570.65233708 651.58343143 -1566.70275879 647.30859375 C-1564.57983288 644.99565636 -1562.50837627 642.6429662 -1560.44885254 640.2734375 C-1557.02549067 636.34732463 -1553.49655355 632.53398572 -1549.92150879 628.74609375 C-1549.37172363 628.16150391 -1548.82193848 627.57691406 -1548.25549316 626.97460938 C-1546.95667956 625.59400295 -1545.6558022 624.21533699 -1544.3536377 622.83789062 C-1542.51251126 620.87892345 -1540.68314886 618.91151267 -1538.86047363 616.93554688 C-1526.08726153 603.15346801 -1512.75289009 589.92460018 -1499.45666504 576.65087891 C-1496.01968415 573.21964616 -1492.58728504 569.78387029 -1489.15615082 566.34679222 C-1486.48124375 563.66825894 -1483.80394423 560.99212718 -1481.12593079 558.31669998 C-1479.8590636 557.05049369 -1478.59292158 555.78356138 -1477.32756042 554.51585007 C-1465.47510159 542.64616944 -1465.47510159 542.64616944 -1459.38098145 537.48538208 C-1457.25366356 535.66582403 -1455.30723912 533.69176963 -1453.35900879 531.68359375 C-1450.1164462 528.40256007 -1446.78853857 525.32899379 -1443.28869629 522.328125 C-1439.91356611 519.34911139 -1436.64135786 516.26413111 -1433.35900879 513.18359375 C-1428.87969188 508.98378971 -1424.39045248 504.81664016 -1419.73400879 500.8125 C-1417.47149697 498.84694286 -1415.26210196 496.82686066 -1413.04650879 494.80859375 C-1409.60522674 491.69830524 -1406.09579581 488.71881063 -1402.48400879 485.80859375 C-1398.47074329 482.56406643 -1394.63487753 479.19610051 -1390.85900879 475.68359375 C-1386.30788025 471.45410747 -1381.61603781 467.46279244 -1376.77697754 463.56640625 C-1373.39926744 460.80816909 -1370.0969628 457.9708406 -1366.79650879 455.12109375 C-1362.13264886 451.10276808 -1357.42194034 447.17098587 -1352.58947754 443.35546875 C-1350.47396114 441.6727404 -1348.37521054 439.97519612 -1346.28479004 438.26171875 C-1338.64773447 432.00447534 -1330.92943415 425.88421702 -1323.06677246 419.91259766 C-1318.71391465 416.60631503 -1314.39531919 413.26310145 -1310.10900879 409.87109375 C-1295.68012411 398.48497768 -1281.00374041 387.44479238 -1266.05187988 376.75585938 C-1263.84256086 375.17180076 -1261.64069083 373.57792086 -1259.44104004 371.98046875 C-1223.79488849 346.09834817 -1187.19352975 321.55950714 -1149.85900879 298.18359375 C-1149.08105957 297.69487793 -1148.30311035 297.20616211 -1147.50158691 296.70263672 C-1112.99002484 275.04429199 -1077.66377393 254.62063203 -1041.85900879 235.18359375 C-1041.25300842 234.8539563 -1040.64700806 234.52431885 -1040.02264404 234.18469238 C-1000.98862011 212.96365372 -961.14583063 192.68091297 -920.4732666 174.78564453 C-916.7211218 173.12247416 -912.98728179 171.42333129 -909.25744629 169.7109375 C-822.13760112 129.76876026 -730.98571412 97.2154674 -203.85900879 0.18359375 C-202.81287415 0.12194031 -201.7667395 0.06028687 -200.68890381 -0.00323486 C-134.20263085 -3.90769562 -66.48640413 -3.89236175 0 0 Z " fill="#0C8AF3" transform="translate(2188.8590087890625,110.81640625)"/>
<path d="M0 0 C2.15147312 0.00482084 4.30293696 0.00664921 6.45441461 0.0083673 C40.72083107 0.05615502 74.90470623 1.59219976 109.12409937 3.25751871 C119.36966411 3.75523952 129.61629688 4.22965592 139.86295915 4.7041471 C143.83748029 4.88838645 147.81199685 5.07272447 151.78651261 5.25707984 C152.79115221 5.3036568 153.79579181 5.35023376 154.83087504 5.39822215 C162.12782341 5.73676029 169.4246253 6.07835605 176.7213881 6.42086768 C211.9530647 8.0727775 247.18823314 9.6408428 282.42464474 11.18762603 C285.28412675 11.31316647 288.14360527 11.43878653 291.00308376 11.56440717 C305.94995868 12.22103157 320.89687717 12.87666017 335.84382463 13.53163123 C336.54429208 13.56232557 337.24475954 13.59301991 337.96645329 13.62464438 C339.37989585 13.68658085 340.79333842 13.74851722 342.20678099 13.81045349 C363.4861664 14.7429096 384.76553942 15.67562569 406.0446673 16.61394382 C413.49702135 16.94249952 420.94943908 17.26955381 428.4019137 17.59536248 C432.97423565 17.79560626 437.54649419 17.99726917 442.11873615 18.19933045 C444.21097357 18.29151434 446.30323614 18.38312956 448.39552653 18.47410333 C451.25955974 18.59871862 454.12349161 18.72546428 456.98740983 18.85269141 C457.7904393 18.887121 458.59346876 18.92155059 459.42083246 18.9570235 C466.97323673 19.2965635 474.489605 19.83337466 482.03971696 20.33671546 C482.03971696 163.22671546 482.03971696 306.11671546 482.03971696 453.33671546 C350.35221696 453.71171546 350.35221696 453.71171546 308.84953141 453.8147428 C296.51819008 453.85467438 296.51819008 453.85467438 284.18685746 453.89717078 C278.71611485 453.91595567 273.24538961 453.92951676 267.77462602 453.93940711 C261.44781164 453.95086358 255.1210595 453.96921038 248.79428936 453.99564425 C245.56587944 454.00892609 242.33755091 454.0182868 239.10911262 454.02096987 C220.34155646 454.03916395 201.78286214 454.77789642 183.28971696 458.21171546 C182.33202409 458.38533607 181.37433122 458.55895667 180.38761735 458.73783851 C115.06810789 470.81504416 47.623165 503.24546635 8.03971696 558.33671546 C7.56469743 558.9944596 7.0896779 559.65220374 6.60026383 560.32987952 C-5.45897014 577.22710657 -15.46515036 595.58976846 -21.96028304 615.33671546 C-22.32379867 616.38085608 -22.68731429 617.42499671 -23.06184554 618.50077796 C-25.19598307 624.93577281 -26.7213536 631.4539253 -28.08528304 638.08671546 C-28.24399886 638.8475846 -28.40271468 639.60845374 -28.56624007 640.39237952 C-31.34231494 654.53839299 -32.25836619 668.56813705 -32.23875594 682.94622779 C-32.24376588 684.64799233 -32.2496387 686.34975451 -32.25628829 688.05151343 C-32.27194103 692.68583637 -32.27548713 697.32009856 -32.27692726 701.95444472 C-32.28073059 707.04455175 -32.29607055 712.13462712 -32.30989814 717.22471499 C-32.33498574 727.085367 -32.35003242 736.9460083 -32.36148205 746.80668455 C-32.37517754 758.2232536 -32.40151185 769.63977095 -32.42781234 781.05631995 C-32.49099578 811.17059792 -32.5371018 841.28490975 -32.58528304 871.39921546 C-32.70903304 938.69859046 -32.83278304 1005.99796546 -32.96028304 1075.33671546 C130.71971696 1075.33671546 294.39971696 1075.33671546 463.03971696 1075.33671546 C459.65762236 1100.13874249 459.65762236 1100.13874249 457.60221696 1111.96171546 C455.95335911 1121.63217729 454.44041063 1131.30603032 453.10221696 1141.02421546 C451.61701438 1151.749911 449.887979 1162.41894043 448.03971696 1173.08671546 C447.90995469 1173.83594275 447.78019242 1174.58517005 447.64649796 1175.3571012 C447.01164652 1179.01813236 446.37446564 1182.67875338 445.73600602 1186.33915687 C443.39055535 1199.79288917 441.16548664 1213.24645279 439.28971696 1226.77421546 C437.41707334 1240.24614228 435.24041662 1253.66496508 433.03971696 1267.08671546 C432.87217912 1268.10877082 432.70464128 1269.13082618 432.53202653 1270.18385291 C431.02483756 1279.36714535 429.51076914 1288.54923271 427.96500993 1297.72611976 C426.23306933 1308.01896935 424.5530657 1318.30334747 423.16471696 1328.64921546 C421.67477531 1339.42076082 419.91357833 1350.12717397 418.03971696 1360.83671546 C416.25786138 1371.02745543 414.5670621 1381.21019685 413.16471696 1391.46171546 C411.34711777 1404.70707099 409.2036337 1417.89422153 407.03971696 1431.08671546 C406.87199784 1432.10976783 406.70427873 1433.1328202 406.53147721 1434.18687415 C405.02447141 1443.36915984 403.51059921 1452.55024156 401.96500993 1461.72611976 C400.23306933 1472.01896935 398.5530657 1482.30334747 397.16471696 1492.64921546 C395.57057714 1504.17406232 393.65216273 1515.62363414 391.64677262 1527.08189368 C389.71005224 1538.16893806 387.98951048 1549.26671876 386.44474626 1560.4163053 C385.34970747 1568.28282405 384.14962955 1576.12597977 382.85221696 1583.96171546 C382.68512223 1584.98225013 382.51802751 1586.0027848 382.3458693 1587.05424476 C382.18940934 1587.98535071 382.03294938 1588.91645667 381.87174821 1589.87577796 C381.73486588 1590.69256019 381.59798356 1591.50934241 381.45695329 1592.35087562 C381.03971696 1594.33671546 381.03971696 1594.33671546 380.03971696 1596.33671546 C243.74971696 1596.33671546 107.45971696 1596.33671546 -32.96028304 1596.33671546 C-32.96028304 2022.36671546 -32.96028304 2448.39671546 -32.96028304 2887.33671546 C-217.76028304 2887.33671546 -402.56028304 2887.33671546 -592.96028304 2887.33671546 C-592.96028304 2461.63671546 -592.96028304 2035.93671546 -592.96028304 1597.33671546 C-748.06028304 1597.33671546 -903.16028304 1597.33671546 -1062.96028304 1597.33671546 C-1062.96028304 1425.07671546 -1062.96028304 1252.81671546 -1062.96028304 1075.33671546 C-907.86028304 1075.33671546 -752.76028304 1075.33671546 -592.96028304 1075.33671546 C-593.0393766 940.7552865 -593.0393766 940.7552865 -593.14045882 806.17387366 C-593.14949203 780.06169105 -593.14949203 780.06169105 -593.15117049 767.8122251 C-593.15302323 759.31217296 -593.16030669 750.81214761 -593.17143416 742.31210303 C-593.18429071 732.47647669 -593.189926 722.64087572 -593.18717294 712.80524094 C-593.1859835 707.78887894 -593.18768097 702.7725734 -593.1987133 697.75622213 C-593.26531414 665.91286977 -592.21068919 634.22951158 -589.08528304 602.52421546 C-589.00035598 601.63979774 -588.91542892 600.75538001 -588.8279283 599.84416175 C-585.42262673 564.3894023 -580.75065214 529.1179593 -572.96028304 494.33671546 C-572.71632796 493.24423499 -572.47237288 492.15175452 -572.22102523 491.02616858 C-571.45356766 487.60722803 -570.67811566 484.19023946 -569.89778304 480.77421546 C-569.66454329 479.7522306 -569.43130355 478.73024573 -569.19099593 477.67729163 C-560.51359517 440.27200178 -548.69934606 403.52875765 -534.27278304 367.96171546 C-533.96676162 367.20724128 -533.66074019 366.4527671 -533.34544539 365.67543006 C-529.93526569 357.29971306 -526.40314275 348.98286188 -522.73762679 340.71562171 C-522.41578918 339.98956733 -522.09395156 339.26351295 -521.76236129 338.51545691 C-519.07237267 332.49577107 -516.22091859 326.56272041 -513.20247054 320.69999671 C-512.01898826 318.39782915 -510.83737876 316.09493579 -509.6643846 313.78739905 C-488.92186744 273.01232385 -464.26521402 234.49511614 -434.96028304 199.33671546 C-434.47962386 198.7569596 -433.99896468 198.17720374 -433.50374007 197.57987952 C-427.70477252 190.59389514 -421.72896159 183.80478117 -415.55403304 177.14921546 C-413.27634394 174.6794321 -411.05229786 172.17320156 -408.83528304 169.64921546 C-404.50884876 164.82989626 -399.96797234 160.23566703 -395.39778304 155.64921546 C-394.68928206 154.9361222 -393.98078109 154.22302894 -393.25081038 153.48832679 C-389.22494431 149.47412313 -385.099643 145.64078776 -380.79353499 141.92924476 C-378.24454424 139.71495968 -375.7958819 137.398402 -373.33528304 135.08671546 C-367.97870967 130.12361613 -362.35452445 125.59729793 -356.57356429 121.14140296 C-354.16601103 119.28524239 -351.79163172 117.39694937 -349.44075179 115.46952796 C-326.01854635 96.28931571 -300.27097169 80.33273244 -273.73713851 65.85429358 C-271.3575019 64.55379937 -268.98757625 63.23786773 -266.62043929 61.91484046 C-230.07626414 41.73210891 -189.51526907 27.53157683 -149.01985335 17.83476233 C-146.3880493 17.19833746 -143.76868279 16.51648773 -141.14778304 15.83671546 C-94.90629608 4.38952218 -47.56596044 -0.10911299 0 0 Z " fill="#FEFEFE" transform="translate(2378.9602830410004,1006.6632845401764)"/>
</svg>
