<svg width="24" height="24" viewBox="0 0 24 24" fill="none" xmlns="http://www.w3.org/2000/svg">
<g id="Frame" clip-path="url(#clip0_1927_19628)">
<path id="iconFill" fill-rule="evenodd" clip-rule="evenodd" d="M23.319 0.253396C19.5143 1.04224 15.9694 2.77614 13.011 5.29527C10.0527 7.8144 7.77604 11.0377 6.39098 14.6681C6.36904 14.7301 6.36516 14.7972 6.3798 14.8614C6.39443 14.9256 6.42697 14.9843 6.47365 15.0307L8.97498 17.5321C9.02155 17.5772 9.07984 17.6084 9.14325 17.6221C9.20665 17.6357 9.27262 17.6313 9.33365 17.6094C12.9737 16.2399 16.2061 13.9679 18.7272 11.0066C21.2484 8.04536 22.9757 4.49197 23.747 0.680063C23.7587 0.621399 23.7558 0.560736 23.7384 0.503481C23.7211 0.446226 23.6898 0.394158 23.6474 0.351917C23.6051 0.309675 23.5529 0.278574 23.4956 0.261384C23.4383 0.244194 23.3776 0.24145 23.319 0.253396Z" fill="#FFCC00"/>
<path id="iconFill_2" fill-rule="evenodd" clip-rule="evenodd" d="M5.20015 12.7663H0.598818C0.537497 12.7665 0.477198 12.7506 0.423938 12.7202C0.370678 12.6898 0.326319 12.646 0.295287 12.5931C0.264255 12.5402 0.247635 12.4801 0.247084 12.4188C0.246534 12.3575 0.262073 12.2971 0.292151 12.2437C1.34815 10.401 5.28015 4.34766 11.2322 4.34766C9.85082 5.73432 5.30815 11.7143 5.20015 12.7663Z" fill="#FFCC00"/>
<path id="iconFill_3" fill-rule="evenodd" clip-rule="evenodd" d="M11.2324 18.799V23.4043C11.2323 23.4653 11.248 23.5254 11.2782 23.5785C11.3084 23.6315 11.3519 23.6758 11.4044 23.7069C11.4569 23.738 11.5166 23.7549 11.5777 23.7558C11.6387 23.7568 11.699 23.7418 11.7524 23.7123C13.5871 22.675 19.6511 18.795 19.6511 12.7656C18.2671 14.1456 12.2844 18.6883 11.2324 18.799Z" fill="#FFCC00"/>
</g>
<defs>
<clipPath id="clip0_1927_19628">
<rect width="24" height="24" fill="white"/>
</clipPath>
</defs>
</svg>
