<svg width="18" height="18" viewBox="0 0 18 18" fill="none" xmlns="http://www.w3.org/2000/svg">
<g id="Frame">
<path id="iconPrimary" d="M15.4186 5.16141L10.2436 1.13601C9.51231 0.568238 8.48926 0.567356 7.75801 1.13689L2.58301 5.16141C2.09345 5.54197 1.80078 6.13963 1.80078 6.76014V14.1755C1.80078 15.2917 2.70957 16.2005 3.82578 16.2005H14.1758C15.292 16.2005 16.2008 15.2917 16.2008 14.1755V6.76013C16.2008 6.13963 15.909 5.54197 15.4186 5.16141ZM10.3508 14.8505H7.65078V10.5755C7.65078 10.2037 7.954 9.90046 8.32578 9.90046H9.67578C10.0476 9.90046 10.3508 10.2037 10.3508 10.5755V14.8505ZM14.8508 14.1755C14.8508 14.5472 14.5476 14.8505 14.1758 14.8505H11.7008V10.5755C11.7008 9.45926 10.792 8.55046 9.67578 8.55046H8.32578C7.20957 8.55046 6.30078 9.45926 6.30078 10.5755V14.8505H3.82578C3.454 14.8505 3.15078 14.5472 3.15078 14.1755V6.76013C3.15078 6.55359 3.24834 6.35408 3.41094 6.22664L8.58593 2.20301C8.83115 2.01229 9.17217 2.01493 9.41563 2.20213L14.5897 6.22664C14.7532 6.35408 14.8508 6.55359 14.8508 6.76013V14.1755Z" fill="#292929"/>
</g>
</svg>
