<svg width="56" height="54" viewBox="0 0 56 54" fill="none" xmlns="http://www.w3.org/2000/svg">
<g id="CC_Product Mnemonics">
<g id="Adobe Express">
<g id="Group 362492">
<path id="Background Tile" d="M45.577 0H9.808C4.39119 0 0 4.39119 0 9.808V44.192C0 49.6088 4.39119 54 9.808 54H45.577C50.9938 54 55.385 49.6088 55.385 44.192V9.808C55.385 4.39119 50.9938 0 45.577 0Z" fill="#D9D9D9"/>
<g id="Adobe A">
<g id="Clip path group">
<mask id="mask0_4558_53335" style="mask-type:luminance" maskUnits="userSpaceOnUse" x="13" y="11" width="30" height="30">
<g id="clip-path-4">
<path id="Path 964291" d="M33.7114 15.4926C33.2142 14.3193 32.3823 13.3186 31.3196 12.6154C30.2569 11.9123 29.0105 11.5379 27.7362 11.5391C26.462 11.5402 25.2163 11.9169 24.1549 12.622C23.0935 13.3271 22.2634 14.3294 21.7684 15.5036L13.5834 35.0006C13.3264 35.6139 13.2248 36.2811 13.2876 36.943C13.3504 37.605 13.5756 38.2412 13.9434 38.7952C14.3111 39.3492 14.8099 39.8039 15.3955 40.1188C15.9811 40.4338 16.6354 40.5992 17.3004 40.6006H26.4154C27.4815 40.5825 28.4978 40.1459 29.2449 39.385C29.9919 38.6241 30.4098 37.6 30.4084 36.5337C30.4069 35.4674 29.9863 34.4444 29.2372 33.6855C28.488 32.9267 27.4706 32.4928 26.4044 32.4776L24.8464 32.4886C24.695 32.488 24.5461 32.45 24.4129 32.3782C24.2797 32.3063 24.1662 32.2027 24.0826 32.0765C23.999 31.9504 23.9477 31.8055 23.9334 31.6549C23.919 31.5042 23.942 31.3523 24.0004 31.2126L26.9054 24.2886C26.9729 24.1229 27.0882 23.9811 27.2367 23.8813C27.3851 23.7814 27.56 23.7281 27.7389 23.7281C27.9178 23.7281 28.0926 23.7814 28.2411 23.8813C28.3895 23.9811 28.5049 24.1229 28.5724 24.2886L34.5004 38.1446C34.7987 38.8844 35.3154 39.5157 35.9816 39.9545C36.6478 40.3933 37.4319 40.6186 38.2294 40.6006C38.8966 40.601 39.5535 40.4361 40.1414 40.1207C40.7293 39.8052 41.2298 39.349 41.5983 38.7928C41.9668 38.2366 42.1917 37.5977 42.253 36.9334C42.3143 36.269 42.2099 35.5998 41.9494 34.9856L33.7114 15.4926Z" fill="white"/>
</g>
</mask>
<g mask="url(#mask0_4558_53335)">
<g id="Group 362491">
<g id="Group 362490">
<g id="Clip path group_2">
<mask id="mask1_4558_53335" style="mask-type:luminance" maskUnits="userSpaceOnUse" x="12" y="10" width="32" height="32">
<g id="clip-path-5">
<path id="Rectangle 354475" d="M43.4224 10.3828H12.1094V41.7558H43.4224V10.3828Z" fill="white"/>
</g>
</mask>
<g mask="url(#mask1_4558_53335)">
<g id="Group 362489">
<rect id="Adobe A Gradient Mesh Rasterized Image" x="12.2188" y="10.375" width="31.127" height="31.458" fill="#D9D9D9"/>
</g>
</g>
</g>
</g>
</g>
</g>
</g>
</g>
</g>
</g>
</g>
</svg>
