<svg width="18" height="19" viewBox="0 0 18 19" fill="none" xmlns="http://www.w3.org/2000/svg">
<g id="Smock_Info_18_N 6" opacity="0.5" clip-path="url(#clip0_4841_57051)">
<path id="Vector" d="M9 1.5C7.41775 1.5 5.87103 1.96919 4.55544 2.84824C3.23985 3.72729 2.21447 4.97672 1.60897 6.43853C1.00347 7.90034 0.84504 9.50887 1.15372 11.0607C1.4624 12.6126 2.22433 14.038 3.34315 15.1569C4.46197 16.2757 5.88743 17.0376 7.43928 17.3463C8.99113 17.655 10.5997 17.4965 12.0615 16.891C13.5233 16.2855 14.7727 15.2602 15.6518 13.9446C16.5308 12.629 17 11.0823 17 9.5C17 7.37827 16.1571 5.34344 14.6569 3.84315C13.1566 2.34285 11.1217 1.5 9 1.5ZM8.85 3.65C9.2099 3.63034 9.56286 3.75446 9.83124 3.99504C10.0996 4.23563 10.2614 4.57297 10.2811 4.93286C10.2834 4.97587 10.2837 5.01892 10.282 5.062C10.297 5.25384 10.2702 5.44665 10.2035 5.62715C10.1368 5.80765 10.0318 5.97156 9.89574 6.1076C9.75965 6.24364 9.5957 6.34858 9.41518 6.4152C9.23465 6.48181 9.04184 6.50853 8.85 6.4935C8.65893 6.5051 8.46756 6.47601 8.28857 6.40815C8.10957 6.34029 7.94702 6.23521 7.81165 6.09985C7.67629 5.96449 7.57121 5.80194 7.50335 5.62294C7.43549 5.44394 7.4064 5.25258 7.418 5.0615C7.40341 4.7015 7.53241 4.35045 7.77665 4.08556C8.02088 3.82068 8.36033 3.66367 8.72033 3.64907C8.76355 3.64731 8.80678 3.64762 8.85 3.65ZM11 14C11 14.1326 10.9473 14.2598 10.8536 14.3536C10.7598 14.4473 10.6326 14.5 10.5 14.5H7.5C7.3674 14.5 7.24022 14.4473 7.14645 14.3536C7.05268 14.2598 7 14.1326 7 14V13C7 12.8674 7.05268 12.7402 7.14645 12.6464C7.24022 12.5527 7.3674 12.5 7.5 12.5H8V9.5H7.5C7.3674 9.5 7.24022 9.44732 7.14645 9.35355C7.05268 9.25979 7 9.13261 7 9V8C7 7.86739 7.05268 7.74021 7.14645 7.64645C7.24022 7.55268 7.3674 7.5 7.5 7.5H9.5C9.63261 7.5 9.75979 7.55268 9.85356 7.64645C9.94733 7.74021 10 7.86739 10 8V12.5H10.5C10.6326 12.5 10.7598 12.5527 10.8536 12.6464C10.9473 12.7402 11 12.8674 11 13V14Z" fill="#464646"/>
</g>
<defs>
<clipPath id="clip0_4841_57051">
<rect width="18" height="18" fill="white" transform="translate(0 0.5)"/>
</clipPath>
</defs>
</svg>
