<svg width="20" height="21" viewBox="0 0 20 21" fill="none" xmlns="http://www.w3.org/2000/svg">
<g id="Frame">
<path id="iconFill" fill-rule="evenodd" clip-rule="evenodd" d="M1.57635 10.9097C1.52662 10.7892 1.5044 10.6614 1.50037 10.5331C1.5 10.5215 1.49366 10.5117 1.49366 10.5C1.49366 10.4883 1.49994 10.4786 1.50031 10.467C1.50427 10.3386 1.52668 10.2107 1.57642 10.0902C1.63092 9.95856 1.70948 9.83972 1.80872 9.7406L7.79444 3.75391C8.21436 3.33594 8.8921 3.33594 9.31202 3.75391C9.73097 4.17286 9.73097 4.85254 9.31202 5.27149L5.15742 9.42676H17.9365C18.5293 9.42676 19.0098 9.90723 19.0098 10.5C19.0098 11.0928 18.5293 11.5732 17.9365 11.5732H5.15742L9.31202 15.7285C9.73097 16.1475 9.73097 16.8271 9.31202 17.2461C9.10206 17.456 8.82764 17.5605 8.55323 17.5605C8.27882 17.5605 8.0044 17.4551 7.79444 17.2461L1.80872 11.2594C1.70948 11.1603 1.63086 11.0414 1.57635 10.9097Z" fill="#222222"/>
</g>
</svg>
