<?xml version="1.0" encoding="UTF-8"?>
<svg version="1.1" xmlns="http://www.w3.org/2000/svg" width="3000" height="3000">
<path d="M0 0 C4.78297391 0.00460717 9.56569197 -0.00222384 14.34863281 -0.02050781 C116.77090594 -0.40784345 219.43363886 10.14313866 618.16662598 128.42938232 C620.14338013 129.31178156 622.12246031 130.18874571 624.10229492 131.06420898 C643.64616914 139.71652232 662.84320502 149.01758195 681.96459961 158.56567383 C683.05526733 159.10921509 684.14593506 159.65275635 685.26965332 160.21276855 C699.28509883 167.20807049 713.13143918 174.45478299 726.83810425 182.03729248 C728.87172324 183.16077813 730.90883067 184.27729896 732.94921875 185.38842773 C749.26114284 194.27256809 765.17971656 203.67085813 781.00170898 213.39086914 C784.63126988 215.60843409 788.28326158 217.78570696 791.94189453 219.95483398 C821.55674373 237.5349756 850.3199708 256.84600998 878.27124023 276.96313477 C880.31563797 278.4332754 882.36661042 279.89398312 884.41772461 281.35473633 C896.1840955 289.76333957 907.684034 298.50631138 919.15209961 307.31567383 C920.39409232 308.26644917 921.63625712 309.21699979 922.87866211 310.16723633 C925.97762098 312.53999865 929.06694458 314.92497802 932.15209961 317.31567383 C932.68786621 317.73059082 933.22363281 318.14550781 933.77563477 318.57299805 C946.64759626 328.55954168 959.21219102 338.9211337 971.61669922 349.48144531 C974.96589572 352.32876316 978.35776874 355.11566358 981.77709961 357.87817383 C986.53730014 361.75146655 991.08014745 365.82327375 995.59741211 369.97583008 C997.77907775 371.97402231 999.9822127 373.93716272 1002.21459961 375.87817383 C1006.0498933 379.21355144 1009.82880979 382.60875814 1013.60131836 386.01489258 C1015.22537298 387.47977492 1016.85263746 388.94111214 1018.48413086 390.39770508 C1028.53434628 399.38123097 1038.55506074 408.46268459 1047.92944336 418.15551758 C1049.73998266 419.9151454 1051.5745801 421.53450441 1053.49584961 423.16723633 C1059.53339261 428.41292454 1065.11799764 434.13272865 1070.76123047 439.79443359 C1072.7100683 441.74863006 1074.66419233 443.6974253 1076.61889648 445.64575195 C1082.15839303 451.18259662 1087.65185081 456.69846107 1092.72607422 462.67138672 C1095.0599506 465.36247685 1097.60315619 467.8304329 1100.15209961 470.31567383 C1103.96970086 474.08691933 1107.63314752 477.90301337 1111.11303711 481.99145508 C1114.04923984 485.3382762 1117.10530838 488.56966324 1120.15209961 491.81567383 C1124.91756966 496.90263381 1129.62796504 502.01151606 1134.15209961 507.31567383 C1135.02687233 508.33670193 1135.9018966 509.35751454 1136.77709961 510.37817383 C1138.2928865 512.14613002 1139.80816988 513.9145035 1141.32177734 515.68432617 C1144.58791874 519.50131595 1147.87380482 523.30026307 1151.1730957 527.08862305 C1156.95775624 533.73428784 1162.61426105 540.46191323 1168.15209961 547.31567383 C1169.16975522 548.56353763 1170.18802706 549.81089903 1171.20678711 551.05786133 C1177.7844089 559.11566828 1184.28626116 567.2262981 1190.68041992 575.43041992 C1192.26830281 577.46453267 1193.86243724 579.49365797 1195.45678711 581.52270508 C1203.90510452 592.29864437 1212.09215701 603.24690284 1220.15209961 614.31567383 C1220.68657715 615.0472168 1221.22105469 615.77875977 1221.77172852 616.5324707 C1243.74345398 646.62109629 1264.62252903 677.5824341 1284.15209961 709.31567383 C1284.77713379 710.33048828 1285.40216797 711.34530273 1286.04614258 712.39086914 C1308.24026353 748.51061043 1328.89694187 785.40652964 1348.07922363 823.20568848 C1349.14837982 825.30835825 1350.22222288 827.40856628 1351.29760742 829.50805664 C1361.32478166 849.09488323 1370.63114342 868.91040376 1379.42068481 889.08251953 C1381.31738486 893.43041247 1383.250235 897.75910545 1385.22241211 902.07348633 C1426.91291223 993.46999411 1456.69691114 1091.64823178 1479.15209961 1200.31567383 C1479.32570007 1201.17271912 1479.49930054 1202.0297644 1479.67816162 1202.91278076 C1492.81469139 1267.95917434 1501.40181133 1333.80110889 1505.83959961 1400.00317383 C1505.93100723 1401.36505829 1505.93100723 1401.36505829 1506.02426147 1402.75445557 C1507.49044959 1424.87919133 1508.31715853 1446.95404272 1508.35522461 1469.12817383 C1508.35805199 1470.2740799 1508.36087936 1471.41998596 1508.36379242 1472.60061646 C1508.37866396 1478.69411432 1508.3879628 1484.78758936 1508.39233398 1490.88110352 C1508.39666655 1495.78026999 1508.41037081 1500.67925516 1508.43334961 1505.57836914 C1508.90500425 1608.3286756 1498.39405899 1711.27234679 1380.03839111 2110.3302002 C1379.15599188 2112.30695435 1378.27902773 2114.28603453 1377.40356445 2116.26586914 C1368.75125112 2135.80974336 1359.45019149 2155.00677923 1349.90209961 2174.12817383 C1349.35855835 2175.21884155 1348.81501709 2176.30950928 1348.25500488 2177.43322754 C1341.25970295 2191.44867305 1334.01299045 2205.2950134 1326.43048096 2219.00167847 C1325.30699531 2221.03529745 1324.19047448 2223.07240488 1323.0793457 2225.11279297 C1314.19520535 2241.42471706 1304.79691531 2257.34329078 1295.0769043 2273.1652832 C1292.85933935 2276.7948441 1290.68206648 2280.44683579 1288.51293945 2284.10546875 C1270.93279783 2313.72031795 1251.62176346 2342.48354502 1231.50463867 2370.43481445 C1230.03449804 2372.47921219 1228.57379032 2374.53018464 1227.11303711 2376.58129883 C1218.70443387 2388.34766972 1209.96146206 2399.84760822 1201.15209961 2411.31567383 C1200.20132427 2412.55766654 1199.25077365 2413.79983134 1198.30053711 2415.04223633 C1195.92777479 2418.1411952 1193.54279542 2421.2305188 1191.15209961 2424.31567383 C1190.73718262 2424.85144043 1190.32226562 2425.38720703 1189.89477539 2425.93920898 C1179.90823175 2438.81117048 1169.54663974 2451.37576524 1158.98632812 2463.78027344 C1156.13901027 2467.12946994 1153.35210986 2470.52134296 1150.58959961 2473.94067383 C1146.71630689 2478.70087436 1142.64449969 2483.24372166 1138.49194336 2487.76098633 C1136.49375112 2489.94265197 1134.53061072 2492.14578691 1132.58959961 2494.37817383 C1129.254222 2498.21346752 1125.8590153 2501.99238401 1122.45288086 2505.76489258 C1120.98799851 2507.3889472 1119.5266613 2509.01621168 1118.07006836 2510.64770508 C1109.08654247 2520.6979205 1100.00508885 2530.71863496 1090.31225586 2540.09301758 C1088.55262804 2541.90355687 1086.93326902 2543.73815432 1085.30053711 2545.65942383 C1080.05484889 2551.69696683 1074.33504479 2557.28157186 1068.67333984 2562.92480469 C1066.71914337 2564.87364252 1064.77034814 2566.82776655 1062.82202148 2568.7824707 C1057.28517682 2574.32196724 1051.76931237 2579.81542502 1045.79638672 2584.88964844 C1043.10529659 2587.22352482 1040.63734053 2589.76673041 1038.15209961 2592.31567383 C1034.38085411 2596.13327508 1030.56476007 2599.79672174 1026.47631836 2603.27661133 C1023.12949724 2606.21281406 1019.8981102 2609.26888259 1016.65209961 2612.31567383 C1011.56513963 2617.08114387 1006.45625738 2621.79153926 1001.15209961 2626.31567383 C1000.13107151 2627.19044655 999.1102589 2628.06547082 998.08959961 2628.94067383 C996.32164342 2630.45646072 994.55326993 2631.9717441 992.78344727 2633.48535156 C988.96645749 2636.75149296 985.16751037 2640.03737903 981.37915039 2643.33666992 C974.73348559 2649.12133045 968.0058602 2654.77783527 961.15209961 2660.31567383 C959.90423581 2661.33332944 958.65687441 2662.35160128 957.40991211 2663.37036133 C949.35210515 2669.94798312 941.24147534 2676.44983538 933.03735352 2682.84399414 C931.00324077 2684.43187703 928.97411547 2686.02601146 926.94506836 2687.62036133 C916.16912906 2696.06867873 905.2208706 2704.25573123 894.15209961 2712.31567383 C893.42055664 2712.85015137 892.68901367 2713.38462891 891.93530273 2713.93530273 C861.84667715 2735.9070282 830.88533934 2756.78610324 799.15209961 2776.31567383 C798.13728516 2776.94070801 797.1224707 2777.56574219 796.0769043 2778.2097168 C759.957163 2800.40383775 723.0612438 2821.06051609 685.26208496 2840.24279785 C683.15941519 2841.31195404 681.05920716 2842.3857971 678.9597168 2843.46118164 C659.37289021 2853.48835588 639.55736968 2862.79471764 619.38525391 2871.58425903 C615.03736097 2873.48095908 610.70866798 2875.41380921 606.39428711 2877.38598633 C514.99777933 2919.07648645 416.81954165 2948.86048536 308.15209961 2971.31567383 C307.29505432 2971.48927429 306.43800903 2971.66287476 305.55499268 2971.84173584 C240.5085991 2984.97826561 174.66666455 2993.56538555 108.46459961 2998.00317383 C107.10271515 2998.09458145 107.10271515 2998.09458145 105.71331787 2998.18783569 C83.58858211 2999.65402381 61.51373072 3000.48073274 39.33959961 3000.51879883 C38.19369354 3000.52162621 37.04778748 3000.52445358 35.86715698 3000.52736664 C29.77365911 3000.54223817 23.68018408 3000.55153702 17.58666992 3000.5559082 C12.68750345 3000.56024077 7.78851828 3000.57394502 2.8894043 3000.59692383 C-99.86090216 3001.06857847 -202.80457336 2990.55763321 -601.86242676 2872.20196533 C-603.83918091 2871.3195661 -605.81826109 2870.44260195 -607.7980957 2869.56713867 C-627.34196992 2860.91482534 -646.5390058 2851.61376571 -665.66040039 2842.06567383 C-666.75106812 2841.52213257 -667.84173584 2840.97859131 -668.9654541 2840.4185791 C-682.98089961 2833.42327717 -696.82723996 2826.17656467 -710.53390503 2818.59405518 C-712.56752402 2817.47056953 -714.60463145 2816.3540487 -716.64501953 2815.24291992 C-732.95694362 2806.35877957 -748.87551734 2796.96048953 -764.69750977 2787.24047852 C-768.32707066 2785.02291357 -771.97906236 2782.8456407 -775.63769531 2780.67651367 C-805.25254451 2763.09637205 -834.01577158 2743.78533768 -861.96704102 2723.66821289 C-864.01143875 2722.19807226 -866.06241121 2720.73736454 -868.11352539 2719.27661133 C-879.87989628 2710.86800809 -891.37983479 2702.12503628 -902.84790039 2693.31567383 C-904.0898931 2692.36489849 -905.3320579 2691.41434787 -906.57446289 2690.46411133 C-909.67342176 2688.09134901 -912.76274537 2685.70636964 -915.84790039 2683.31567383 C-916.38366699 2682.90075684 -916.91943359 2682.48583984 -917.47143555 2682.05834961 C-930.34339704 2672.07180597 -942.9079918 2661.71021396 -955.3125 2651.14990234 C-958.6616965 2648.30258449 -962.05356952 2645.51568408 -965.47290039 2642.75317383 C-970.23310092 2638.87988111 -974.77594823 2634.80807391 -979.29321289 2630.65551758 C-981.47487854 2628.65732534 -983.67801348 2626.69418494 -985.91040039 2624.75317383 C-989.74569408 2621.41779622 -993.52461058 2618.02258952 -997.29711914 2614.61645508 C-998.92117376 2613.15157273 -1000.54843824 2611.69023551 -1002.17993164 2610.23364258 C-1012.23014706 2601.25011669 -1022.25086152 2592.16866306 -1031.62524414 2582.47583008 C-1033.43578344 2580.71620226 -1035.27038088 2579.09684324 -1037.19165039 2577.46411133 C-1043.22919339 2572.21842311 -1048.81379842 2566.49861901 -1054.45703125 2560.83691406 C-1056.40586909 2558.88271759 -1058.35999311 2556.93392236 -1060.31469727 2554.9855957 C-1065.85419381 2549.44875103 -1071.34765159 2543.93288659 -1076.421875 2537.95996094 C-1078.75575138 2535.26887081 -1081.29895697 2532.80091475 -1083.84790039 2530.31567383 C-1087.66550164 2526.54442833 -1091.3289483 2522.72833429 -1094.80883789 2518.63989258 C-1097.74504062 2515.29307146 -1100.80110916 2512.06168442 -1103.84790039 2508.81567383 C-1108.61337044 2503.72871385 -1113.32376583 2498.61983159 -1117.84790039 2493.31567383 C-1118.72267311 2492.29464573 -1119.59769738 2491.27383312 -1120.47290039 2490.25317383 C-1121.98868728 2488.48521763 -1123.50397066 2486.71684415 -1125.01757812 2484.94702148 C-1128.28371952 2481.13003171 -1131.5696056 2477.33108459 -1134.86889648 2473.54272461 C-1140.65355702 2466.89705981 -1146.31006183 2460.16943442 -1151.84790039 2453.31567383 C-1152.865556 2452.06781003 -1153.88382784 2450.82044862 -1154.90258789 2449.57348633 C-1161.48020968 2441.51567937 -1167.98206194 2433.40504956 -1174.3762207 2425.20092773 C-1175.96410359 2423.16681499 -1177.55823802 2421.13768968 -1179.15258789 2419.10864258 C-1187.6009053 2408.33270328 -1195.78795779 2397.38444482 -1203.84790039 2386.31567383 C-1204.6496167 2385.21835937 -1204.6496167 2385.21835937 -1205.4675293 2384.09887695 C-1227.43925476 2354.01025137 -1248.31832981 2323.04891356 -1267.84790039 2291.31567383 C-1268.47293457 2290.30085938 -1269.09796875 2289.28604492 -1269.74194336 2288.24047852 C-1291.93606431 2252.12073722 -1312.59274265 2215.22481802 -1331.77502441 2177.42565918 C-1332.8441806 2175.32298941 -1333.91802366 2173.22278138 -1334.9934082 2171.12329102 C-1345.02058244 2151.53646443 -1354.3269442 2131.7209439 -1363.1164856 2111.54882812 C-1365.01318564 2107.20093519 -1366.94603578 2102.8722422 -1368.91821289 2098.55786133 C-1411.0130019 2006.2750463 -1440.64460707 1907.24225811 -1488.03540039 1621.00317383 C-1488.11439575 1620.05284271 -1488.19339111 1619.1025116 -1488.27478027 1618.12338257 C-1488.87136102 1610.85858134 -1489.37984745 1603.58983272 -1489.84790039 1596.31567383 C-1489.89115574 1595.65513882 -1489.93441109 1594.99460381 -1489.9789772 1594.31405258 C-1491.84200068 1565.70193187 -1492.19343833 1537.13478398 -1492.16357422 1508.46777344 C-1492.15896704 1503.68479953 -1492.16579805 1498.90208147 -1492.18408203 1494.11914062 C-1492.57141767 1391.69686749 -1482.02043555 1289.03413457 -1363.73419189 890.30114746 C-1362.85179266 888.32439331 -1361.97482851 886.34531312 -1361.09936523 884.36547852 C-1352.4470519 864.8216043 -1343.14599227 845.62456842 -1333.59790039 826.50317383 C-1333.05435913 825.4125061 -1332.51081787 824.32183838 -1331.95080566 823.19812012 C-1324.95550373 809.18267461 -1317.70879123 795.33633426 -1310.12628174 781.62966919 C-1309.00279609 779.5960502 -1307.88627526 777.55894277 -1306.77514648 775.51855469 C-1297.89357511 759.21134742 -1288.49844063 743.29683887 -1278.78149414 727.47924805 C-1276.5289724 723.7938722 -1274.31411311 720.08734499 -1272.10766602 716.37426758 C-1261.39427952 698.35958529 -1249.94879079 680.87000967 -1238.22290039 663.50317383 C-1237.69991364 662.72797394 -1237.17692688 661.95277405 -1236.63809204 661.15408325 C-1229.17918569 650.10881832 -1221.5750922 639.17477874 -1213.84790039 628.31567383 C-1212.90599854 626.98862427 -1212.90599854 626.98862427 -1211.94506836 625.63476562 C-1203.18263953 613.32182823 -1194.05335338 601.29937179 -1184.84790039 589.31567383 C-1183.89712505 588.07368112 -1182.94657443 586.83151632 -1181.99633789 585.58911133 C-1179.62357557 582.49015246 -1177.2385962 579.40082885 -1174.84790039 576.31567383 C-1174.4329834 575.77990723 -1174.01806641 575.24414062 -1173.59057617 574.69213867 C-1163.60403254 561.82017717 -1153.24244052 549.25558241 -1142.68212891 536.85107422 C-1139.83481105 533.50187772 -1137.04791064 530.1100047 -1134.28540039 526.69067383 C-1130.41210767 521.9304733 -1126.34030047 517.38762599 -1122.18774414 512.87036133 C-1120.18955191 510.68869568 -1118.2264115 508.48556074 -1116.28540039 506.25317383 C-1112.95002278 502.41788013 -1109.55481608 498.63896364 -1106.14868164 494.86645508 C-1104.68379929 493.24240046 -1103.22246208 491.61513598 -1101.76586914 489.98364258 C-1092.78234325 479.93342715 -1083.70088963 469.9127127 -1074.00805664 460.53833008 C-1072.25794597 458.73758329 -1070.65005772 456.91491922 -1069.02758789 455.00317383 C-1063.6409469 448.80340074 -1057.75535777 443.07446772 -1051.94189453 437.27929688 C-1049.91527059 435.25803115 -1047.89404492 433.23147809 -1045.87329102 431.2043457 C-1034.53629436 419.86211022 -1034.53629436 419.86211022 -1028.44335938 414.69287109 C-1025.93776454 412.53004623 -1023.66035668 410.18385196 -1021.34790039 407.81567383 C-1017.7586842 404.17793812 -1014.09460566 400.70697399 -1010.20727539 397.38989258 C-1006.85108079 394.43933077 -1003.60607844 391.37366637 -1000.34790039 388.31567383 C-995.26092011 383.55022385 -990.15205947 378.83980951 -984.84790039 374.31567383 C-983.82687229 373.44090111 -982.80605968 372.56587684 -981.78540039 371.69067383 C-980.0174442 370.17488693 -978.24907072 368.65960356 -976.47924805 367.14599609 C-972.66225827 363.8798547 -968.86331115 360.59396862 -965.07495117 357.29467773 C-958.42928638 351.5100172 -951.70166098 345.85351239 -944.84790039 340.31567383 C-943.60003659 339.29801822 -942.35267519 338.27974637 -941.10571289 337.26098633 C-933.04790593 330.68336454 -924.93727612 324.18151228 -916.7331543 317.78735352 C-914.69904155 316.19947063 -912.66991625 314.6053362 -910.64086914 313.01098633 C-899.86492985 304.56266892 -888.91667138 296.37561643 -877.84790039 288.31567383 C-877.11635742 287.78119629 -876.38481445 287.24671875 -875.63110352 286.69604492 C-845.54247793 264.72431945 -814.58114012 243.84524441 -782.84790039 224.31567383 C-781.83308594 223.69063965 -780.81827148 223.06560547 -779.77270508 222.42163086 C-743.65296379 200.22750991 -706.75704458 179.57083157 -668.95788574 160.3885498 C-666.85521597 159.31939362 -664.75500794 158.24555056 -662.65551758 157.17016602 C-643.06869099 147.14299178 -623.25317046 137.83663002 -603.08105469 129.04708862 C-598.73316175 127.15038858 -594.40446876 125.21753844 -590.09008789 123.24536133 C-497.80727286 81.15057232 -398.77448467 51.51896714 -112.53540039 4.12817383 C-111.58506927 4.04917847 -110.63473816 3.97018311 -109.65560913 3.88879395 C-102.3908079 3.29221319 -95.12205928 2.78372677 -87.84790039 2.31567383 C-87.18736538 2.27241848 -86.52683037 2.22916313 -85.84627914 2.18459702 C-57.23415844 0.32157353 -28.66701054 -0.02986411 0 0 Z " fill="#2867B2" transform="translate(1491.847900390625,-0.315673828125)"/>
<path d="M0 0 C1.05347626 -0.00100708 2.10695251 -0.00201416 3.19235229 -0.00305176 C29.55087248 0.01389698 55.24695903 2.0314407 81.125 7.25 C82.75332764 7.56493408 82.75332764 7.56493408 84.41455078 7.88623047 C101.42501424 11.18762697 117.76769974 15.54415113 134.125 21.25 C135.07697266 21.57274902 136.02894531 21.89549805 137.00976562 22.22802734 C182.68458583 37.79471984 223.95021597 63.36611099 259.125 96.25 C260.17633494 97.20148932 261.22976126 98.15067236 262.28515625 99.09765625 C267.23768765 103.54982409 272.02651015 108.00713623 276.30859375 113.125 C278.53617145 115.73102638 280.89624436 118.19488972 283.25 120.6875 C290.11948984 128.09273862 296.14156596 136.12367851 302.125 144.25 C302.63708008 144.94254883 303.14916016 145.63509766 303.67675781 146.34863281 C311.91024426 157.54723335 319.2167109 169.19392835 326.125 181.25 C326.90012939 182.59263916 326.90012939 182.59263916 327.69091797 183.96240234 C366.67154662 251.97754049 384.2281387 330.54094103 391.24726619 456.9081944 C391.24378168 460.46922815 391.2462122 464.03025916 391.24784368 467.59129357 C391.24990265 473.81262264 391.24829915 480.03394207 391.24420547 486.25527 C391.23813551 495.50595444 391.23787289 504.75663288 391.23874746 514.00731895 C391.24005721 529.57333969 391.23673578 545.13935617 391.23073006 560.70537567 C391.22480313 576.1068092 391.22096211 591.50824094 391.21987724 606.9096756 C391.2198085 607.86903912 391.21973976 608.82840265 391.21966894 609.8168378 C391.21933059 614.68940975 391.21902921 619.5619817 391.21874207 624.43455365 C391.21664438 658.90314765 391.20991465 693.37173934 391.20043945 727.84033203 C391.19124788 761.31591784 391.18416777 794.79150302 391.17993164 828.26708984 C391.17973435 829.81621518 391.17973435 829.81621518 391.17953308 831.39663598 C391.1782145 841.76839972 391.1769387 852.14016347 391.17569422 862.51192723 C391.17315834 883.63842434 391.17033708 904.76492141 391.16734314 925.89141846 C391.16720585 926.86267648 391.16706856 927.83393451 391.16692711 928.83462459 C391.16270593 958.59114568 391.15727578 988.34766637 391.15065002 1018.10418701 C391.15036869 1019.37085523 391.15036869 1019.37085523 391.15008167 1020.6631127 C391.1424682 1054.85874198 391.13357304 1089.05437095 391.125 1123.25 C299.715 1123.25 208.305 1123.25 114.125 1123.25 C114.10518066 1103.73125732 114.08536133 1084.21251465 114.06494141 1064.10229492 C114.05141464 1051.0656075 114.03785459 1038.02892017 114.02383423 1024.99223328 C114.02249943 1023.74973423 114.02249943 1023.74973423 114.02113767 1022.4821342 C113.9911264 994.57885071 113.95841149 966.67557108 113.92367554 938.77229309 C113.9219751 937.4055049 113.9219751 937.4055049 113.92024031 936.01110484 C113.89558459 916.20489282 113.87049152 896.39868137 113.84494839 876.59247048 C113.83242335 866.87846024 113.81999488 857.16444988 113.80761719 847.45043945 C113.80638386 846.48381704 113.80515054 845.51719463 113.80387984 844.52128062 C113.76400313 813.23233489 113.73049392 781.94338631 113.70031309 750.65442984 C113.66924523 718.48093476 113.63170086 686.3074535 113.58609388 654.13397558 C113.57964419 649.58191981 113.57326796 645.02986394 113.56693649 640.477808 C113.56568819 639.58196376 113.56443988 638.68611952 113.56315375 637.76312848 C113.54330827 623.3858046 113.53022019 609.00848226 113.51970672 594.63114886 C113.50897204 580.15086657 113.491005 565.67060719 113.46583296 551.19034269 C113.45112235 542.60437008 113.44177932 534.01843248 113.44043317 525.43244716 C113.43898048 519.67480268 113.43020957 513.91719737 113.41584408 508.15957075 C113.40789335 504.89319659 113.40391047 501.62691214 113.40672119 498.3605273 C113.42264866 476.19231347 112.38711312 454.09793682 109.3125 432.125 C109.14073242 430.88186035 108.96896484 429.6387207 108.79199219 428.35791016 C104.90476875 401.10909971 98.90942899 373.67488218 88.125 348.25 C87.79918945 347.47785156 87.47337891 346.70570313 87.13769531 345.91015625 C66.68368134 297.92837049 33.79240738 260.61054502 -14.875 240.25 C-53.43427561 224.94416601 -100.46183924 222.23555414 -140.875 231.25 C-141.74382812 231.43191895 -142.61265625 231.61383789 -143.5078125 231.80126953 C-162.69966044 235.85634465 -180.5932901 243.06788344 -197.875 252.25 C-199.29425781 252.96736328 -199.29425781 252.96736328 -200.7421875 253.69921875 C-213.42018327 260.26393763 -225.10242694 268.93180886 -235.875 278.25 C-236.64457031 278.90871094 -237.41414063 279.56742188 -238.20703125 280.24609375 C-251.0168552 291.4838995 -262.78467164 303.51605209 -272.875 317.25 C-273.69900566 318.34391055 -274.52322349 319.43766131 -275.34765625 320.53125 C-300.91302118 354.90701996 -317.05754338 394.56651775 -320.875 437.25 C-320.95919927 438.165272 -321.04339854 439.08054401 -321.1301493 440.02355152 C-322.17036258 453.17599972 -322.02862526 466.34212248 -322.03321838 479.52757263 C-322.03724409 482.30826144 -322.04274887 485.08894689 -322.04818195 487.86963326 C-322.05918494 493.89874878 -322.06658944 499.92786019 -322.07158089 505.95698357 C-322.07901946 514.92194324 -322.09210992 523.88688857 -322.10632664 532.85183974 C-322.13008776 547.93536085 -322.14931261 563.01888453 -322.16592598 578.10241508 C-322.18238328 593.0307087 -322.20087283 607.95899755 -322.22205925 622.88728523 C-322.22337686 623.81649283 -322.22469446 624.74570042 -322.226052 625.70306582 C-322.23275435 630.42230162 -322.23949285 635.14153737 -322.24624526 639.86077309 C-322.2939713 673.26175099 -322.33716692 706.66273335 -322.37768555 740.0637207 C-322.41705209 772.50643234 -322.45847864 804.94914028 -322.50268555 837.3918457 C-322.50404808 838.39238433 -322.50541061 839.39292295 -322.50681442 840.42378093 C-322.52050014 850.47186803 -322.53422765 860.51995508 -322.54798577 870.56804209 C-322.57601012 891.03600742 -322.60375561 911.50397314 -322.6313324 931.97193909 C-322.6326006 932.91296281 -322.6338688 933.85398652 -322.63517542 934.82352611 C-322.67402185 963.65907757 -322.71168666 992.49463041 -322.7481842 1021.33018494 C-322.7492206 1022.14864133 -322.75025699 1022.96709772 -322.75132478 1023.81035582 C-322.79327951 1056.95690297 -322.83398243 1090.10345168 -322.875 1123.25 C-415.275 1123.25 -507.675 1123.25 -602.875 1123.25 C-602.89481934 1096.6027417 -602.91463867 1069.9554834 -602.93505859 1042.50073242 C-602.94858848 1024.69199102 -602.96215127 1006.88324969 -602.97616577 989.07450867 C-602.97705564 987.94251653 -602.9779455 986.81052439 -602.97886233 985.64422946 C-603.00891918 947.45310977 -603.04163628 909.26199283 -603.07632446 871.07087708 C-603.07745809 869.82203045 -603.07859171 868.57318382 -603.07975969 867.28649336 C-603.10442479 840.13015274 -603.12951829 812.97381253 -603.15505161 785.81747271 C-603.1669458 773.16460644 -603.17876121 760.5117401 -603.19051713 747.8588737 C-603.19238333 745.85076296 -603.1942517 743.84265223 -603.19612016 741.83454149 C-603.23589907 699.05407871 -603.26943428 656.27361447 -603.29968691 613.49314385 C-603.33087076 569.44304532 -603.36848085 525.39295667 -603.41390612 481.34287043 C-603.42035427 475.08708878 -603.42673076 468.83130705 -603.43306351 462.57552528 C-603.43493596 460.72911465 -603.43493596 460.72911465 -603.43684625 458.8454028 C-603.45656569 439.22000163 -603.46972985 419.59460156 -603.48029328 399.96919355 C-603.49112013 380.12439304 -603.50920723 360.27960881 -603.53416704 340.43482097 C-603.54744386 329.72910144 -603.55787797 319.02340101 -603.55921364 308.31767273 C-603.56602421 266.98161584 -603.78697675 225.66946916 -604.80508423 184.34443665 C-604.82580897 183.49803877 -604.84653371 182.65164089 -604.86788647 181.77959459 C-605.46365305 157.59442224 -606.29920321 133.42119213 -607.3125 109.25 C-607.36679541 107.95452843 -607.42109082 106.65905686 -607.47703154 105.32432858 C-608.62125257 78.6123651 -610.30478635 51.94363202 -611.875 25.25 C-531.355 25.25 -450.835 25.25 -367.875 25.25 C-366.07931878 42.6082518 -364.31628312 59.9239644 -362.9375 77.3125 C-362.77054342 79.38510713 -362.60338274 81.45769784 -362.43603516 83.53027344 C-361.53284893 94.76176914 -360.66004303 105.9955343 -359.80078125 117.23046875 C-359.71234451 118.3859169 -359.62390778 119.54136505 -359.53279114 120.73182678 C-359.10807222 126.2884744 -358.68622081 131.84531399 -358.26977539 137.40258789 C-357.46557269 148.0588371 -356.60019691 158.70103442 -355.50167847 169.331604 C-354.83151401 175.99283152 -354.65135851 182.55317974 -354.875 189.25 C-351.5501108 189.37899191 -351.5501108 189.37899191 -347.875 188.25 C-345.65387038 185.90099656 -344.26328171 183.1527637 -342.75 180.3125 C-341.80843595 178.66302417 -340.8602921 177.01729018 -339.90625 175.375 C-339.41511719 174.52679687 -338.92398437 173.67859375 -338.41796875 172.8046875 C-331.6585405 161.61312782 -323.31851975 151.20076851 -314.875 141.25 C-314.07964844 140.2703125 -313.28429688 139.290625 -312.46484375 138.28125 C-305.8593343 130.23598414 -298.64931136 122.81002007 -291.3125 115.4375 C-290.58845978 114.70569519 -290.58845978 114.70569519 -289.84979248 113.95910645 C-283.20421408 107.25740318 -276.24655687 101.14323397 -268.875 95.25 C-267.77336949 94.31498754 -266.67703715 93.37363578 -265.58984375 92.421875 C-217.4345551 50.42992147 -155.76597818 23.10974674 -93.70996094 9.86572266 C-91.20608614 9.32190831 -88.71639848 8.74089421 -86.2265625 8.13671875 C-75.7963997 5.66954377 -65.25717047 4.31396874 -54.625 3.0625 C-53.90715332 2.97764343 -53.18930664 2.89278687 -52.44970703 2.80535889 C-34.95126966 0.76123781 -17.61130136 0.01173638 0 0 Z " fill="#FEFEFE" transform="translate(1901.875,1154.75)"/>
<path d="M0 0 C92.4 0 184.8 0 280 0 C280 362.34 280 724.68 280 1098 C187.6 1098 95.2 1098 0 1098 C0 735.66 0 373.32 0 0 Z " fill="#FEFEFE" transform="translate(722,1180)"/>
<path d="M0 0 C0.70554016 0.00409882 1.41108032 0.00819763 2.13800049 0.01242065 C44.32191414 0.29943882 83.6665946 14.71457658 114.125 44.25 C116.63209333 46.7954952 118.89948334 49.45548527 121.125 52.25 C121.94613281 53.27222656 122.76726562 54.29445313 123.61328125 55.34765625 C140.11389558 76.51741674 148.93007431 100.20790499 154.125 126.25 C154.37378906 127.43851563 154.62257813 128.62703125 154.87890625 129.8515625 C161.4372408 166.81672087 151.31281452 206.03129105 131.125 237.25 C128.31547767 241.10458687 125.30031531 244.69364686 122.125 248.25 C121.39410156 249.10078125 120.66320312 249.9515625 119.91015625 250.828125 C108.32616935 264.10186745 94.84800183 274.35675682 79.125 282.25 C78.05378906 282.80300781 76.98257813 283.35601563 75.87890625 283.92578125 C60.2481971 291.64697492 43.38750838 296.81866079 26.125 299.25 C24.84238281 299.43433594 23.55976562 299.61867188 22.23828125 299.80859375 C15.65788704 300.5088286 9.03623302 300.43600547 2.42626953 300.43530273 C0.15768061 300.4374688 -2.11040424 300.45561887 -4.37890625 300.47460938 C-17.95789235 300.52806015 -31.49856078 299.5598006 -44.6875 296.125 C-45.51024414 295.91327148 -46.33298828 295.70154297 -47.18066406 295.48339844 C-72.41843445 288.67351049 -93.91713209 276.14246707 -112.875 258.25 C-113.62394531 257.56550781 -114.37289062 256.88101562 -115.14453125 256.17578125 C-128.40388158 243.61306929 -137.8192801 226.93410301 -144.875 210.25 C-145.22175781 209.47785156 -145.56851563 208.70570313 -145.92578125 207.91015625 C-153.27968366 190.84569545 -155.23718952 172.49903968 -155.19067383 154.11328125 C-155.18752162 151.51779807 -155.21103287 148.92346769 -155.23632812 146.328125 C-155.29147151 131.97175262 -153.51359718 118.27448808 -149.3125 104.5 C-149.06419434 103.68273437 -148.81588867 102.86546875 -148.56005859 102.0234375 C-143.92475961 87.52539004 -137.06269358 73.40911036 -127.875 61.25 C-127.2253125 60.37988281 -126.575625 59.50976562 -125.90625 58.61328125 C-99.20555239 24.49018823 -61.96523698 6.43615091 -19.60107422 0.63378906 C-13.07311333 -0.0385969 -6.55597564 -0.05430767 0 0 Z " fill="#FEFEFE" transform="translate(861.875,721.75)"/>
</svg>
