<svg width="20" height="20" viewBox="0 0 20 20" fill="none" xmlns="http://www.w3.org/2000/svg">
<path d="M17.7811 1.75678C16.5092 0.715762 14.5541 0.858342 13.3309 2.08002L3.07802 12.3339C2.75771 12.6533 2.51943 13.0507 2.38906 13.4843L1.00478 18.0683C0.924699 18.3329 0.996969 18.6201 1.19228 18.8154C1.33486 18.9579 1.52675 19.0351 1.72255 19.0351C1.79482 19.0351 1.86806 19.0244 1.93935 19.0029L6.52187 17.6191C6.95546 17.4892 7.35341 17.2509 7.67275 16.9306C7.67275 16.9306 17.8412 6.76262 18.0282 6.57512C18.6762 5.92766 19.0214 5.0302 18.976 4.11516C18.9301 3.20012 18.4945 2.33979 17.7811 1.75678ZM2.84511 17.163L3.82509 13.9169C3.85225 13.8266 3.89223 13.7412 3.93886 13.6596L6.34755 16.0688C6.26601 16.1152 6.18037 16.1552 6.08974 16.1826L2.84511 17.163ZM16.9667 5.51557C16.812 5.67109 9.86684 12.6157 7.44124 15.0415L4.96663 12.5664L14.3915 3.14056C14.7777 2.75384 15.2875 2.55462 15.7811 2.55462C16.162 2.55462 16.5336 2.67376 16.8314 2.91692C17.223 3.23821 17.4525 3.68938 17.4774 4.18938C17.5023 4.68254 17.3163 5.16596 16.9667 5.51557Z" fill="#292929"/>
</svg>
