<svg width="15" height="15" viewBox="0 0 15 15" fill="none" xmlns="http://www.w3.org/2000/svg">
<g id="Frame" clip-path="url(#clip0_1601_63012)">
<path id="iconFill" fill-rule="evenodd" clip-rule="evenodd" d="M7.47867 1.66797C3.38802 1.66797 0 5.82684 0 7.54689C0 9.56402 3.55854 13.3346 7.47867 13.3346C11.315 13.3346 15 9.58055 15 7.50559C15 5.48772 11.3465 1.66797 7.47867 1.66797ZM13.3334 7.5055C13.3334 8.18756 10.8724 11.668 7.4803 11.668C4.10374 11.668 1.66676 8.22635 1.66676 7.54731C1.66676 6.89024 4.20334 3.33464 7.4803 3.33464C10.8392 3.33464 13.3334 6.82381 13.3334 7.5055Z" fill="#292929"/>
<path id="iconFill_2" fill-rule="evenodd" clip-rule="evenodd" d="M7.5 5C6.12142 5 5 6.12142 5 7.5C5 8.87858 6.12142 10 7.5 10C8.87858 10 10 8.87858 10 7.5C10 6.12142 8.87858 5 7.5 5ZM7.5 8.33333C7.0402 8.33333 6.66667 7.9598 6.66667 7.5C6.66667 7.0402 7.0402 6.66667 7.5 6.66667C7.9598 6.66667 8.33333 7.0402 8.33333 7.5C8.33333 7.9598 7.9598 8.33333 7.5 8.33333Z" fill="#292929"/>
</g>
<defs>
<clipPath id="clip0_1601_63012">
<rect width="15" height="15" fill="white"/>
</clipPath>
</defs>
</svg>
