<svg width="12" height="13" viewBox="0 0 12 13" fill="none" xmlns="http://www.w3.org/2000/svg">
<g id="Frame" clip-path="url(#clip0_1601_63005)">
<path id="iconFill" fill-rule="evenodd" clip-rule="evenodd" d="M11.6595 0.624745C9.75715 1.01917 7.9847 1.88612 6.50552 3.14568C5.02633 4.40525 3.88802 6.0169 3.19549 7.83208C3.18452 7.86312 3.18258 7.89663 3.1899 7.92873C3.19721 7.96083 3.21349 7.99019 3.23683 8.01341L4.48749 9.26408C4.51077 9.28665 4.53992 9.30225 4.57162 9.30908C4.60333 9.31592 4.63631 9.31372 4.66683 9.30274C6.48686 8.61801 8.10303 7.482 9.36362 6.00136C10.6242 4.52073 11.4879 2.74403 11.8735 0.838078C11.8794 0.808746 11.8779 0.778415 11.8692 0.749788C11.8605 0.72116 11.8449 0.695126 11.8237 0.674005C11.8025 0.652885 11.7765 0.637334 11.7478 0.628739C11.7191 0.620144 11.6888 0.618772 11.6595 0.624745Z" fill="#222222"/>
<path id="iconFill_2" fill-rule="evenodd" clip-rule="evenodd" d="M2.59959 6.88121H0.298921C0.26826 6.8813 0.238111 6.87336 0.211481 6.85816C0.184851 6.84296 0.162671 6.82105 0.147155 6.7946C0.131639 6.76816 0.123329 6.73811 0.123054 6.70745C0.122779 6.67679 0.130548 6.64659 0.145587 6.61987C0.673587 5.69854 2.63959 2.67188 5.61559 2.67188C4.92492 3.36521 2.65359 6.35521 2.59959 6.88121Z" fill="#222222"/>
<path id="iconFill_3" fill-rule="evenodd" clip-rule="evenodd" d="M5.61621 9.89948V12.2021C5.61613 12.2327 5.62402 12.2627 5.6391 12.2892C5.65418 12.3158 5.67593 12.3379 5.70219 12.3535C5.72845 12.369 5.75832 12.3775 5.78885 12.3779C5.81937 12.3784 5.84948 12.3709 5.87621 12.3561C6.79355 11.8375 9.82554 9.89748 9.82554 6.88281C9.13354 7.57281 6.14221 9.84415 5.61621 9.89948Z" fill="#222222"/>
</g>
<defs>
<clipPath id="clip0_1601_63005">
<rect width="12" height="12" fill="white" transform="translate(0 0.5)"/>
</clipPath>
</defs>
</svg>
