<svg width="24" height="24" viewBox="0 0 24 24" fill="none" xmlns="http://www.w3.org/2000/svg">
<g id="Frame">
<path id="iconFill" fill-rule="evenodd" clip-rule="evenodd" d="M12.0002 1.33203C9.8905 1.33203 7.82821 1.95762 6.07408 3.12969C4.31996 4.30176 2.95279 5.96766 2.14545 7.91674C1.33812 9.86582 1.12688 12.0105 1.53846 14.0797C1.95003 16.1488 2.96594 18.0494 4.4577 19.5412C5.94946 21.0329 7.85007 22.0488 9.9192 22.4604C11.9883 22.872 14.133 22.6607 16.0821 21.8534C18.0312 21.0461 19.6971 19.6789 20.8692 17.9248C22.0412 16.1707 22.6668 14.1084 22.6668 11.9987C22.6668 9.16972 21.543 6.45661 19.5426 4.45623C17.5423 2.45584 14.8291 1.33203 12.0002 1.33203ZM18.6668 12.6654C18.6668 12.8422 18.5966 13.0117 18.4716 13.1368C18.3465 13.2618 18.177 13.332 18.0002 13.332H6.00017C5.82336 13.332 5.65379 13.2618 5.52876 13.1368C5.40374 13.0117 5.3335 12.8422 5.3335 12.6654V11.332C5.3335 11.1552 5.40374 10.9857 5.52876 10.8606C5.65379 10.7356 5.82336 10.6654 6.00017 10.6654H18.0002C18.177 10.6654 18.3465 10.7356 18.4716 10.8606C18.5966 10.9857 18.6668 11.1552 18.6668 11.332V12.6654Z" fill="#222222"/>
</g>
</svg>
