<svg width="32" height="32" viewBox="0 0 32 32" fill="none" xmlns="http://www.w3.org/2000/svg">
<g clip-path="url(#clip0_14311_132947)">
<mask id="mask0_14311_132947" style="mask-type:alpha" maskUnits="userSpaceOnUse" x="6" y="6" width="20" height="20">
<path d="M13.4775 8H22.5225C23.751 8 24.75 9.00977 24.75 10.25V11.3604C24.75 11.7744 24.4141 12.1104 24 12.1104C23.5859 12.1104 23.25 11.7744 23.25 11.3604V10.25C23.25 9.83691 22.9238 9.5 22.5225 9.5H18.75V22.5H20.3203C20.7344 22.5 21.0703 22.8359 21.0703 23.25C21.0703 23.6641 20.7344 24 20.3203 24H15.6797C15.2656 24 14.9297 23.6641 14.9297 23.25C14.9297 22.8359 15.2656 22.5 15.6797 22.5H17.25V9.5H13.4775C13.0762 9.5 12.75 9.83691 12.75 10.25V11.3604C12.75 11.7744 12.4141 12.1104 12 12.1104C11.5859 12.1104 11.25 11.7744 11.25 11.3604V10.25C11.25 9.00977 12.249 8 13.4775 8Z" fill="#292929"/>
<path d="M8.25 15H13.25C14.0771 15 14.75 15.6729 14.75 16.5V17.3603C14.75 17.7744 14.4141 18.1103 14 18.1103C13.5859 18.1103 13.25 17.7744 13.25 17.3603V16.5H11.5V22.5H12.0859C12.5 22.5 12.8359 22.8359 12.8359 23.25C12.8359 23.6641 12.5 24 12.0859 24H9.44629C9.03223 24 8.69629 23.6641 8.69629 23.25C8.69629 22.8359 9.03223 22.5 9.44629 22.5H10V16.5H8.25V17.3603C8.25 17.7744 7.91406 18.1103 7.5 18.1103C7.08594 18.1103 6.75 17.7744 6.75 17.3603V16.5C6.75 15.6729 7.42285 15 8.25 15Z" fill="#292929"/>
</mask>
<g mask="url(#mask0_14311_132947)">
<rect x="6" y="6" width="20" height="20" fill="#292929"/>
</g>
</g>
<defs>
<clipPath id="clip0_14311_132947">
<rect width="32" height="32" rx="8" fill="white"/>
</clipPath>
</defs>
</svg>
