<svg width="32" height="32" viewBox="0 0 32 32" fill="none" xmlns="http://www.w3.org/2000/svg">
<g clip-path="url(#clip0_14311_132951)">
<mask id="mask0_14311_132951" style="mask-type:alpha" maskUnits="userSpaceOnUse" x="6" y="6" width="20" height="20">
<path d="M11.3135 24.748C10.2725 24.748 9.23243 24.3516 8.44043 23.5596C6.85645 21.9756 6.85645 19.3974 8.44043 17.8125L12.3457 13.9072C13.9307 12.3232 16.5078 12.3242 18.0928 13.9072C18.3096 14.125 18.5 14.3642 18.6592 14.6172C18.8799 14.9678 18.7744 15.4307 18.4238 15.6514C18.0713 15.873 17.6103 15.7656 17.3896 15.416C17.2891 15.2558 17.168 15.1045 17.0303 14.9668C16.0312 13.9678 14.4053 13.9687 13.4062 14.9678L9.50098 18.873C8.50196 19.873 8.50196 21.5 9.50098 22.499C10.502 23.5 12.1279 23.4961 13.127 22.499L15.0791 20.5469C15.3721 20.2539 15.8467 20.2539 16.1397 20.5469C16.4326 20.8398 16.4326 21.3144 16.1397 21.6074L14.1875 23.5596C13.3955 24.3516 12.3545 24.7471 11.3135 24.748ZM19.6543 18.0928L23.5596 14.1875C25.1435 12.6025 25.1435 10.0244 23.5596 8.44043C21.9756 6.85645 19.3965 6.85645 17.8125 8.44043L15.8603 10.3926C15.5674 10.6855 15.5674 11.1602 15.8603 11.4531C16.1533 11.7461 16.6279 11.7461 16.9209 11.4531L18.873 9.50098C19.8721 8.50293 21.498 8.50098 22.499 9.50098C23.498 10.5 23.498 12.127 22.499 13.127L18.5938 17.0322C17.5947 18.0312 15.9688 18.0322 14.9697 17.0332C14.832 16.8955 14.7109 16.7441 14.6104 16.584C14.3897 16.2344 13.9287 16.127 13.5762 16.3486C13.2256 16.5693 13.1201 17.0322 13.3408 17.3828C13.5 17.6357 13.6904 17.875 13.9072 18.0928C14.7002 18.8848 15.7402 19.2813 16.7813 19.2813C17.8213 19.2813 18.8623 18.8848 19.6543 18.0928Z" fill="#292929"/>
</mask>
<g mask="url(#mask0_14311_132951)">
<rect x="6" y="6" width="20" height="20" fill="#292929"/>
</g>
</g>
<defs>
<clipPath id="clip0_14311_132951">
<rect width="32" height="32" rx="8" fill="white"/>
</clipPath>
</defs>
</svg>
