<svg width="32" height="32" viewBox="0 0 32 32" fill="none" xmlns="http://www.w3.org/2000/svg">
<g clip-path="url(#clip0_14311_132946)">
<mask id="mask0_14311_132946" style="mask-type:alpha" maskUnits="userSpaceOnUse" x="6" y="6" width="20" height="20">
<path d="M20.5225 8H11.4775C10.249 8 9.25 9.00977 9.25 10.25V11.3604C9.25 11.7744 9.58594 12.1104 10 12.1104C10.4141 12.1104 10.75 11.7744 10.75 11.3604V10.25C10.75 9.83691 11.0762 9.5 11.4775 9.5H15.25V20.5H13.6797C13.2656 20.5 12.9297 20.8359 12.9297 21.25C12.9297 21.6641 13.2656 22 13.6797 22H18.3203C18.7344 22 19.0703 21.6641 19.0703 21.25C19.0703 20.8359 18.7344 20.5 18.3203 20.5H16.75V9.5H20.5225C20.9238 9.5 21.25 9.83691 21.25 10.25V11.3604C21.25 11.7744 21.5859 12.1104 22 12.1104C22.4141 12.1104 22.75 11.7744 22.75 11.3604V10.25C22.75 9.00977 21.751 8 20.5225 8Z" fill="#292929"/>
<path d="M22.25 25H9.75C9.33594 25 9 24.6641 9 24.25C9 23.8359 9.33594 23.5 9.75 23.5H22.25C22.6641 23.5 23 23.8359 23 24.25C23 24.6641 22.6641 25 22.25 25Z" fill="#292929"/>
</mask>
<g mask="url(#mask0_14311_132946)">
<rect x="6" y="6" width="20" height="20" fill="#292929"/>
</g>
</g>
<defs>
<clipPath id="clip0_14311_132946">
<rect width="32" height="32" rx="8" fill="white"/>
</clipPath>
</defs>
</svg>
