<svg width="32" height="32" viewBox="0 0 32 32" fill="none" xmlns="http://www.w3.org/2000/svg">
<g clip-path="url(#clip0_14311_132949)">
<mask id="mask0_14311_132949" style="mask-type:alpha" maskUnits="userSpaceOnUse" x="6" y="6" width="20" height="20">
<path d="M23.25 22.5215H13.25C12.8359 22.5215 12.5 22.1855 12.5 21.7715C12.5 21.3574 12.8359 21.0215 13.25 21.0215H23.25C23.6641 21.0215 24 21.3574 24 21.7715C24 22.1855 23.6641 22.5215 23.25 22.5215Z" fill="#292929"/>
<path d="M23.25 16.5215H13.25C12.8359 16.5215 12.5 16.1855 12.5 15.7715C12.5 15.3574 12.8359 15.0215 13.25 15.0215H23.25C23.6641 15.0215 24 15.3574 24 15.7715C24 16.1855 23.6641 16.5215 23.25 16.5215Z" fill="#292929"/>
<path d="M23.25 10.5215H13.25C12.8359 10.5215 12.5 10.1855 12.5 9.77148C12.5 9.35742 12.8359 9.02148 13.25 9.02148H23.25C23.6641 9.02148 24 9.35742 24 9.77148C24 10.1855 23.6641 10.5215 23.25 10.5215Z" fill="#292929"/>
<path d="M9.10987 11.5195V8.89453H9.08643L8.63819 9.20508C8.53272 9.27832 8.46534 9.30176 8.34815 9.30176C8.1167 9.30176 7.93799 9.12891 7.93799 8.88281C7.93799 8.70996 8.0083 8.56933 8.17237 8.45801L8.93995 7.94531C9.18604 7.78125 9.39991 7.75781 9.64015 7.75781C10.0884 7.75781 10.3521 8.02734 10.3521 8.45215V11.5195C10.3521 11.8916 10.103 12.1318 9.73097 12.1318C9.3589 12.1318 9.10987 11.8916 9.10987 11.5195Z" fill="#292929"/>
<path d="M7.70509 17.5225C7.70509 17.2939 7.81056 17.1182 8.04493 16.9219L9.20802 15.9258C9.68263 15.5186 9.8174 15.334 9.8174 15.082C9.8174 14.8154 9.61232 14.6309 9.31056 14.6309C9.0879 14.6309 8.93556 14.7334 8.77736 14.9619C8.6133 15.2021 8.46388 15.29 8.22658 15.29C7.91017 15.29 7.71681 15.1055 7.71681 14.8066C7.71681 14.71 7.73439 14.6191 7.77247 14.5312C7.99513 14.0273 8.58985 13.7139 9.32813 13.7139C10.3564 13.7139 11.0127 14.2324 11.0127 15C11.0127 15.5684 10.7197 15.8643 10.0635 16.4326L9.29297 17.0977V17.1211H10.6348C10.9453 17.1211 11.1211 17.3057 11.1211 17.5898C11.1211 17.8682 10.9453 18.0586 10.6348 18.0586H8.28516C7.88086 18.0586 7.70509 17.833 7.70509 17.5225Z" fill="#292929"/>
<path d="M7.67871 23.3057C7.65234 23.2324 7.64062 23.1504 7.64062 23.0859C7.64062 22.7783 7.84571 22.5879 8.17969 22.5879C8.41114 22.5879 8.56348 22.6641 8.68653 22.8428C8.84473 23.0742 9 23.2119 9.36914 23.2119C9.67969 23.2119 9.90234 23.0244 9.90234 22.7637C9.90234 22.4619 9.6709 22.3008 9.24024 22.3008H9.21094C8.9209 22.3008 8.77442 22.1397 8.77442 21.8906C8.77442 21.6533 8.9209 21.4834 9.21094 21.4834H9.24024C9.62403 21.4834 9.84668 21.3164 9.84668 21.0439C9.84668 20.7832 9.65332 20.6191 9.33984 20.6191C9.08789 20.6191 8.90919 20.7217 8.78907 20.9326C8.64845 21.1816 8.4961 21.2725 8.22657 21.2725C7.88673 21.2725 7.71973 21.0732 7.71973 20.7979C7.71973 20.7158 7.73145 20.6514 7.76075 20.5693C7.91016 20.1621 8.42579 19.7139 9.33399 19.7139C10.2744 19.7139 10.9893 20.1123 10.9893 20.8652C10.9893 21.4131 10.5879 21.7529 10.1221 21.8467V21.8701C10.7666 21.9375 11.165 22.292 11.165 22.8545C11.165 23.6631 10.4707 24.1758 9.33983 24.1758C8.35545 24.1758 7.82226 23.707 7.67871 23.3057Z" fill="#292929"/>
</mask>
<g mask="url(#mask0_14311_132949)">
<rect x="6" y="6" width="20" height="20" fill="#292929"/>
</g>
</g>
<defs>
<clipPath id="clip0_14311_132949">
<rect width="32" height="32" rx="8" fill="white"/>
</clipPath>
</defs>
</svg>
