<svg width="32" height="32" viewBox="0 0 32 32" fill="none" xmlns="http://www.w3.org/2000/svg">
<g clip-path="url(#clip0_14311_132945)">
<mask id="mask0_14311_132945" style="mask-type:alpha" maskUnits="userSpaceOnUse" x="6" y="6" width="20" height="20">
<path d="M22.6545 8.75586C22.2727 8.27539 21.7014 8 21.0881 8H12.0412C11.1066 8 10.2873 8.59668 9.90255 9.55957L9.34493 10.9639C9.19259 11.3486 9.38009 11.7842 9.76583 11.9375C10.1477 12.0908 10.5852 11.9033 10.7395 11.5166L11.2961 10.1143C11.3537 9.97071 11.5783 9.5 12.0412 9.5H15.7619L12.2697 22.5H10.6623C10.2482 22.5 9.91231 22.8359 9.91231 23.25C9.91231 23.6641 10.2482 24 10.6623 24H15.302C15.716 24 16.052 23.6641 16.052 23.25C16.052 22.8359 15.716 22.5 15.302 22.5H13.8234L17.3156 9.5H21.0881C21.298 9.5 21.423 9.61816 21.4797 9.68848C21.5353 9.75977 21.6223 9.90821 21.5744 10.1133L21.3244 11.1904C21.2307 11.5947 21.4816 11.9971 21.885 12.0908C21.9426 12.1045 21.9992 12.1104 22.0559 12.1104C22.3967 12.1104 22.7053 11.876 22.7854 11.5303L23.0354 10.4531C23.175 9.85546 23.0354 9.23633 22.6545 8.75586Z" fill="#292929"/>
</mask>
<g mask="url(#mask0_14311_132945)">
<rect x="6" y="6" width="20" height="20" fill="#292929"/>
</g>
</g>
<defs>
<clipPath id="clip0_14311_132945">
<rect width="32" height="32" rx="8" fill="white"/>
</clipPath>
</defs>
</svg>
