<svg width="32" height="32" viewBox="0 0 32 32" fill="none" xmlns="http://www.w3.org/2000/svg">
<g clip-path="url(#clip0_14311_132944)">
<mask id="mask0_14311_132944" style="mask-type:alpha" maskUnits="userSpaceOnUse" x="6" y="6" width="20" height="20">
<path d="M19.9893 8.01465H11.5107C10.126 8.01465 9 9.19238 9 10.6396V11.75C9 12.3711 9.50391 12.875 10.125 12.875C10.7461 12.875 11.25 12.3711 11.25 11.75V10.6396C11.25 10.4189 11.3877 10.2646 11.5107 10.2646H14V21.71C14 21.7148 14.0015 21.7197 14.0015 21.7246H13.4297C12.8086 21.7246 12.3047 22.2285 12.3047 22.8496C12.3047 23.4707 12.8086 23.9746 13.4297 23.9746H18.0703C18.6914 23.9746 19.1953 23.4707 19.1953 22.8496C19.1953 22.2285 18.6914 21.7246 18.0703 21.7246H17.4985C17.4985 21.7197 17.5 21.7148 17.5 21.71V10.2646H19.9892C20.1123 10.2646 20.25 10.4189 20.25 10.6396V11.75C20.25 12.3711 20.7539 12.875 21.375 12.875C21.9961 12.875 22.5 12.3711 22.5 11.75V10.6396C22.5 9.19238 21.374 8.01465 19.9893 8.01465Z" fill="#292929"/>
</mask>
<g mask="url(#mask0_14311_132944)">
<rect x="6" y="6" width="20" height="20" fill="#292929"/>
</g>
</g>
<defs>
<clipPath id="clip0_14311_132944">
<rect width="32" height="32" rx="8" fill="white"/>
</clipPath>
</defs>
</svg>
