<svg width="32" height="32" viewBox="0 0 32 32" fill="none" xmlns="http://www.w3.org/2000/svg">
<g clip-path="url(#clip0_14311_132948)">
<mask id="mask0_14311_132948" style="mask-type:alpha" maskUnits="userSpaceOnUse" x="6" y="6" width="20" height="20">
<path d="M23.25 22.5215H13.25C12.8359 22.5215 12.5 22.1855 12.5 21.7715C12.5 21.3574 12.8359 21.0215 13.25 21.0215H23.25C23.6641 21.0215 24 21.3574 24 21.7715C24 22.1855 23.6641 22.5215 23.25 22.5215Z" fill="#292929"/>
<path d="M23.25 16.5215H13.25C12.8359 16.5215 12.5 16.1855 12.5 15.7715C12.5 15.3574 12.8359 15.0215 13.25 15.0215H23.25C23.6641 15.0215 24 15.3574 24 15.7715C24 16.1855 23.6641 16.5215 23.25 16.5215Z" fill="#292929"/>
<path d="M23.25 10.5215H13.25C12.8359 10.5215 12.5 10.1855 12.5 9.77148C12.5 9.35742 12.8359 9.02148 13.25 9.02148H23.25C23.6641 9.02148 24 9.35742 24 9.77148C24 10.1855 23.6641 10.5215 23.25 10.5215Z" fill="#292929"/>
<path d="M9.5 11.271C10.3284 11.271 11 10.5994 11 9.771C11 8.94257 10.3284 8.271 9.5 8.271C8.67157 8.271 8 8.94257 8 9.771C8 10.5994 8.67157 11.271 9.5 11.271Z" fill="#292929"/>
<path d="M9.5 17.271C10.3284 17.271 11 16.5994 11 15.771C11 14.9426 10.3284 14.271 9.5 14.271C8.67157 14.271 8 14.9426 8 15.771C8 16.5994 8.67157 17.271 9.5 17.271Z" fill="#292929"/>
<path d="M9.5 23.271C10.3284 23.271 11 22.5994 11 21.771C11 20.9426 10.3284 20.271 9.5 20.271C8.67157 20.271 8 20.9426 8 21.771C8 22.5994 8.67157 23.271 9.5 23.271Z" fill="#292929"/>
</mask>
<g mask="url(#mask0_14311_132948)">
<rect x="6" y="6" width="20" height="20" fill="#292929"/>
</g>
</g>
<defs>
<clipPath id="clip0_14311_132948">
<rect width="32" height="32" rx="8" fill="white"/>
</clipPath>
</defs>
</svg>
