<svg width="16" height="16" viewBox="0 0 16 16" fill="none" xmlns="http://www.w3.org/2000/svg">
<g id="Frame">
<path id="iconPrimary" d="M13.8719 6.62343L10.975 3.72656C10.6398 3.3914 10.1758 3.19922 9.70235 3.19922H4.99922C4.00703 3.19922 3.19922 4.00664 3.19922 4.99922V12.5992C3.19922 13.5918 4.00703 14.3992 4.99922 14.3992H12.5992C13.5914 14.3992 14.3992 13.5918 14.3992 12.5992V7.89609C14.3992 7.42226 14.207 6.95859 13.8719 6.62343ZM13.0234 7.47188C13.06 7.5084 13.0825 7.55488 13.1083 7.59922H10.5992C10.2687 7.59922 9.99922 7.33007 9.99922 6.99922V4.49023C10.0435 4.51602 10.09 4.53847 10.1266 4.575L13.0234 7.47188ZM12.5992 13.1992H4.99922C4.66875 13.1992 4.39922 12.9301 4.39922 12.5992V4.99922C4.39922 4.66836 4.66875 4.39922 4.99922 4.39922H8.79922V6.99922C8.79922 7.9918 9.60703 8.79922 10.5992 8.79922H13.1992V12.5992C13.1992 12.9301 12.9297 13.1992 12.5992 13.1992Z" fill="#292929"/>
<path id="iconPrimary_2" d="M3.79922 2.79922C3.46797 2.79922 3.19922 2.53047 3.19922 2.19922V0.799219C3.19922 0.467971 3.46797 0.199219 3.79922 0.199219C4.13047 0.199219 4.39922 0.467971 4.39922 0.799219V2.19922C4.39922 2.53047 4.13047 2.79922 3.79922 2.79922Z" fill="#292929"/>
<path id="iconPrimary_3" d="M2.19922 4.39922H0.799219C0.467971 4.39922 0.199219 4.13047 0.199219 3.79922C0.199219 3.46797 0.467971 3.19922 0.799219 3.19922H2.19922C2.53047 3.19922 2.79922 3.46797 2.79922 3.79922C2.79922 4.13047 2.53047 4.39922 2.19922 4.39922Z" fill="#292929"/>
</g>
</svg>
